<svg width="728" height="90" viewBox="0 0 728 90" fill="none" xmlns="http://www.w3.org/2000/svg">
<rect width="728" height="90" fill="url(#paint0_linear_414_28)"/>
<path d="M339.852 19.576H336.22V29H334.028V19.576H330.396V17.64H339.852V19.576ZM343.364 29.16C342.692 29.16 342.084 29.048 341.54 28.824C340.996 28.5893 340.532 28.2747 340.148 27.88C339.764 27.4747 339.465 27.016 339.252 26.504C339.049 25.9813 338.948 25.432 338.948 24.856C338.948 24.056 339.124 23.3253 339.476 22.664C339.839 22.0027 340.351 21.4747 341.012 21.08C341.684 20.6747 342.473 20.472 343.38 20.472C344.297 20.472 345.081 20.6747 345.732 21.08C346.383 21.4747 346.879 22.0027 347.22 22.664C347.572 23.3147 347.748 24.0187 347.748 24.776C347.748 24.904 347.743 25.0373 347.732 25.176C347.721 25.304 347.711 25.4107 347.7 25.496H341.22C341.263 25.9227 341.385 26.296 341.588 26.616C341.801 26.936 342.068 27.1813 342.388 27.352C342.719 27.512 343.071 27.592 343.444 27.592C343.871 27.592 344.271 27.4907 344.644 27.288C345.028 27.0747 345.289 26.7973 345.428 26.456L347.268 26.968C347.065 27.3947 346.772 27.7733 346.388 28.104C346.015 28.4347 345.572 28.696 345.06 28.888C344.548 29.0693 343.983 29.16 343.364 29.16ZM341.172 24.136H345.556C345.513 23.7093 345.391 23.3413 345.188 23.032C344.996 22.712 344.74 22.4667 344.42 22.296C344.1 22.1147 343.743 22.024 343.348 22.024C342.964 22.024 342.612 22.1147 342.292 22.296C341.983 22.4667 341.727 22.712 341.524 23.032C341.332 23.3413 341.215 23.7093 341.172 24.136ZM352.958 29.16C352.275 29.16 351.662 29.048 351.118 28.824C350.574 28.5893 350.11 28.2693 349.726 27.864C349.342 27.448 349.043 26.9787 348.83 26.456C348.627 25.9333 348.526 25.384 348.526 24.808C348.526 24.0187 348.702 23.2987 349.054 22.648C349.417 21.9867 349.929 21.4587 350.59 21.064C351.251 20.6693 352.035 20.472 352.942 20.472C353.849 20.472 354.627 20.6693 355.278 21.064C355.929 21.4587 356.414 21.976 356.734 22.616L354.638 23.256C354.457 22.9467 354.217 22.712 353.918 22.552C353.619 22.3813 353.289 22.296 352.926 22.296C352.521 22.296 352.147 22.4027 351.806 22.616C351.475 22.8187 351.214 23.112 351.022 23.496C350.83 23.8693 350.734 24.3067 350.734 24.808C350.734 25.2987 350.83 25.736 351.022 26.12C351.225 26.4933 351.491 26.792 351.822 27.016C352.153 27.2293 352.521 27.336 352.926 27.336C353.182 27.336 353.422 27.2933 353.646 27.208C353.881 27.1227 354.089 27.0053 354.27 26.856C354.451 26.7067 354.585 26.536 354.67 26.344L356.766 26.984C356.574 27.4 356.291 27.7733 355.918 28.104C355.555 28.4347 355.123 28.696 354.622 28.888C354.131 29.0693 353.577 29.16 352.958 29.16ZM365.877 29H363.733V24.296C363.733 23.624 363.616 23.1333 363.381 22.824C363.147 22.5147 362.821 22.36 362.405 22.36C362.117 22.36 361.824 22.4347 361.525 22.584C361.237 22.7333 360.976 22.9413 360.741 23.208C360.507 23.464 360.336 23.7627 360.229 24.104V29H358.085V20.616H360.021V22.168C360.235 21.8053 360.507 21.5013 360.837 21.256C361.168 21 361.547 20.808 361.973 20.68C362.411 20.5413 362.869 20.472 363.349 20.472C363.872 20.472 364.299 20.568 364.629 20.76C364.971 20.9413 365.227 21.192 365.397 21.512C365.579 21.8213 365.701 22.1733 365.765 22.568C365.84 22.9627 365.877 23.3627 365.877 23.768V29ZM367.742 29V20.616H369.886V29H367.742ZM367.742 19.448V17.32H369.886V19.448H367.742ZM375.724 29.16C375.041 29.16 374.428 29.048 373.884 28.824C373.34 28.5893 372.876 28.2693 372.492 27.864C372.108 27.448 371.809 26.9787 371.596 26.456C371.393 25.9333 371.292 25.384 371.292 24.808C371.292 24.0187 371.468 23.2987 371.82 22.648C372.182 21.9867 372.694 21.4587 373.356 21.064C374.017 20.6693 374.801 20.472 375.708 20.472C376.614 20.472 377.393 20.6693 378.044 21.064C378.694 21.4587 379.18 21.976 379.5 22.616L377.404 23.256C377.222 22.9467 376.982 22.712 376.684 22.552C376.385 22.3813 376.054 22.296 375.692 22.296C375.286 22.296 374.913 22.4027 374.572 22.616C374.241 22.8187 373.98 23.112 373.788 23.496C373.596 23.8693 373.5 24.3067 373.5 24.808C373.5 25.2987 373.596 25.736 373.788 26.12C373.99 26.4933 374.257 26.792 374.588 27.016C374.918 27.2293 375.286 27.336 375.692 27.336C375.948 27.336 376.188 27.2933 376.412 27.208C376.646 27.1227 376.854 27.0053 377.036 26.856C377.217 26.7067 377.35 26.536 377.436 26.344L379.532 26.984C379.34 27.4 379.057 27.7733 378.684 28.104C378.321 28.4347 377.889 28.696 377.388 28.888C376.897 29.0693 376.342 29.16 375.724 29.16ZM380.275 26.52C380.275 25.976 380.424 25.5013 380.723 25.096C381.032 24.68 381.459 24.36 382.003 24.136C382.547 23.912 383.171 23.8 383.875 23.8C384.227 23.8 384.584 23.8267 384.947 23.88C385.31 23.9333 385.624 24.0187 385.891 24.136V23.688C385.891 23.1547 385.731 22.744 385.411 22.456C385.102 22.168 384.638 22.024 384.019 22.024C383.56 22.024 383.123 22.104 382.707 22.264C382.291 22.424 381.854 22.6587 381.395 22.968L380.707 21.56C381.262 21.1973 381.827 20.9253 382.403 20.744C382.99 20.5627 383.603 20.472 384.243 20.472C385.438 20.472 386.366 20.7707 387.027 21.368C387.699 21.9653 388.035 22.8187 388.035 23.928V26.6C388.035 26.824 388.072 26.984 388.147 27.08C388.232 27.176 388.366 27.2347 388.547 27.256V29C388.355 29.032 388.179 29.0587 388.019 29.08C387.87 29.1013 387.742 29.112 387.635 29.112C387.208 29.112 386.883 29.016 386.659 28.824C386.446 28.632 386.312 28.3973 386.259 28.12L386.211 27.688C385.848 28.1573 385.395 28.52 384.851 28.776C384.307 29.032 383.752 29.16 383.187 29.16C382.632 29.16 382.131 29.048 381.683 28.824C381.246 28.5893 380.899 28.2747 380.643 27.88C380.398 27.4747 380.275 27.0213 380.275 26.52ZM385.491 26.952C385.608 26.824 385.704 26.696 385.779 26.568C385.854 26.44 385.891 26.3227 385.891 26.216V25.368C385.635 25.2613 385.358 25.1813 385.059 25.128C384.76 25.064 384.478 25.032 384.211 25.032C383.656 25.032 383.198 25.1547 382.835 25.4C382.483 25.6347 382.307 25.9493 382.307 26.344C382.307 26.5573 382.366 26.76 382.483 26.952C382.6 27.144 382.771 27.2987 382.995 27.416C383.219 27.5333 383.486 27.592 383.795 27.592C384.115 27.592 384.43 27.5333 384.739 27.416C385.048 27.288 385.299 27.1333 385.491 26.952ZM394.984 28.568C394.803 28.6427 394.584 28.728 394.328 28.824C394.072 28.92 393.795 28.9947 393.496 29.048C393.208 29.112 392.915 29.144 392.616 29.144C392.222 29.144 391.859 29.0747 391.528 28.936C391.198 28.7973 390.931 28.5787 390.728 28.28C390.536 27.9707 390.44 27.5707 390.44 27.08V22.264H389.336V20.616H390.44V17.896H392.584V20.616H394.344V22.264H392.584V26.36C392.595 26.648 392.675 26.856 392.824 26.984C392.974 27.112 393.16 27.176 393.384 27.176C393.608 27.176 393.827 27.1387 394.04 27.064C394.254 26.9893 394.424 26.9253 394.552 26.872L394.984 28.568ZM396.021 25.864V20.616H398.165V25.4C398.165 26.04 398.282 26.5253 398.517 26.856C398.752 27.176 399.098 27.336 399.557 27.336C399.834 27.336 400.106 27.2827 400.373 27.176C400.65 27.0587 400.901 26.888 401.125 26.664C401.36 26.44 401.557 26.1573 401.717 25.816V20.616H403.861V26.6C403.861 26.824 403.898 26.984 403.973 27.08C404.058 27.176 404.192 27.2347 404.373 27.256V29C404.16 29.032 403.978 29.0533 403.829 29.064C403.69 29.0853 403.562 29.096 403.445 29.096C403.061 29.096 402.746 29.0107 402.501 28.84C402.266 28.6587 402.128 28.4133 402.085 28.104L402.037 27.432C401.664 27.9973 401.184 28.4293 400.597 28.728C400.01 29.016 399.365 29.16 398.661 29.16C397.797 29.16 397.141 28.8827 396.693 28.328C396.245 27.7627 396.021 26.9413 396.021 25.864ZM410.984 22.472C410.333 22.472 409.752 22.6 409.24 22.856C408.728 23.1013 408.36 23.4587 408.136 23.928V29H405.992V20.616H407.96V22.408C408.258 21.832 408.637 21.3787 409.096 21.048C409.554 20.7173 410.04 20.536 410.552 20.504C410.669 20.504 410.76 20.504 410.824 20.504C410.888 20.504 410.941 20.5093 410.984 20.52V22.472ZM411.556 26.52C411.556 25.976 411.706 25.5013 412.004 25.096C412.314 24.68 412.74 24.36 413.284 24.136C413.828 23.912 414.452 23.8 415.156 23.8C415.508 23.8 415.866 23.8267 416.228 23.88C416.591 23.9333 416.906 24.0187 417.172 24.136V23.688C417.172 23.1547 417.012 22.744 416.692 22.456C416.383 22.168 415.919 22.024 415.3 22.024C414.842 22.024 414.404 22.104 413.988 22.264C413.572 22.424 413.135 22.6587 412.676 22.968L411.988 21.56C412.543 21.1973 413.108 20.9253 413.684 20.744C414.271 20.5627 414.884 20.472 415.524 20.472C416.719 20.472 417.647 20.7707 418.308 21.368C418.98 21.9653 419.316 22.8187 419.316 23.928V26.6C419.316 26.824 419.354 26.984 419.428 27.08C419.514 27.176 419.647 27.2347 419.828 27.256V29C419.636 29.032 419.46 29.0587 419.3 29.08C419.151 29.1013 419.023 29.112 418.916 29.112C418.49 29.112 418.164 29.016 417.94 28.824C417.727 28.632 417.594 28.3973 417.54 28.12L417.492 27.688C417.13 28.1573 416.676 28.52 416.132 28.776C415.588 29.032 415.034 29.16 414.468 29.16C413.914 29.16 413.412 29.048 412.964 28.824C412.527 28.5893 412.18 28.2747 411.924 27.88C411.679 27.4747 411.556 27.0213 411.556 26.52ZM416.772 26.952C416.89 26.824 416.986 26.696 417.06 26.568C417.135 26.44 417.172 26.3227 417.172 26.216V25.368C416.916 25.2613 416.639 25.1813 416.34 25.128C416.042 25.064 415.759 25.032 415.492 25.032C414.938 25.032 414.479 25.1547 414.116 25.4C413.764 25.6347 413.588 25.9493 413.588 26.344C413.588 26.5573 413.647 26.76 413.764 26.952C413.882 27.144 414.052 27.2987 414.276 27.416C414.5 27.5333 414.767 27.592 415.076 27.592C415.396 27.592 415.711 27.5333 416.02 27.416C416.33 27.288 416.58 27.1333 416.772 26.952ZM432.14 20.616C432.065 20.5413 431.926 20.44 431.724 20.312C431.532 20.184 431.292 20.0613 431.004 19.944C430.726 19.8267 430.422 19.7253 430.092 19.64C429.761 19.544 429.425 19.496 429.084 19.496C428.486 19.496 428.033 19.608 427.724 19.832C427.425 20.056 427.276 20.3707 427.276 20.776C427.276 21.0853 427.372 21.3307 427.564 21.512C427.756 21.6933 428.044 21.848 428.428 21.976C428.812 22.104 429.292 22.2427 429.868 22.392C430.614 22.5733 431.26 22.7973 431.804 23.064C432.358 23.32 432.78 23.6613 433.068 24.088C433.366 24.504 433.516 25.0587 433.516 25.752C433.516 26.36 433.404 26.8827 433.18 27.32C432.956 27.7467 432.646 28.0933 432.252 28.36C431.857 28.6267 431.409 28.824 430.908 28.952C430.406 29.0693 429.873 29.128 429.308 29.128C428.742 29.128 428.177 29.0693 427.612 28.952C427.046 28.8347 426.502 28.6693 425.98 28.456C425.457 28.232 424.977 27.9653 424.54 27.656L425.516 25.752C425.612 25.848 425.782 25.976 426.028 26.136C426.273 26.2853 426.572 26.44 426.924 26.6C427.276 26.7493 427.66 26.8773 428.076 26.984C428.492 27.0907 428.913 27.144 429.34 27.144C429.937 27.144 430.39 27.0427 430.7 26.84C431.009 26.6373 431.164 26.3493 431.164 25.976C431.164 25.6347 431.041 25.368 430.796 25.176C430.55 24.984 430.209 24.8187 429.772 24.68C429.334 24.5307 428.817 24.3707 428.22 24.2C427.505 23.9973 426.908 23.7733 426.428 23.528C425.948 23.272 425.59 22.952 425.356 22.568C425.121 22.184 425.004 21.704 425.004 21.128C425.004 20.3493 425.185 19.6987 425.548 19.176C425.921 18.6427 426.422 18.2427 427.052 17.976C427.681 17.6987 428.38 17.56 429.148 17.56C429.681 17.56 430.182 17.6187 430.652 17.736C431.132 17.8533 431.58 18.008 431.996 18.2C432.412 18.392 432.785 18.6 433.116 18.824L432.14 20.616ZM434.849 25.864V20.616H436.993V25.4C436.993 26.04 437.11 26.5253 437.345 26.856C437.58 27.176 437.926 27.336 438.385 27.336C438.662 27.336 438.934 27.2827 439.201 27.176C439.478 27.0587 439.729 26.888 439.953 26.664C440.188 26.44 440.385 26.1573 440.545 25.816V20.616H442.689V26.6C442.689 26.824 442.726 26.984 442.801 27.08C442.886 27.176 443.02 27.2347 443.201 27.256V29C442.988 29.032 442.806 29.0533 442.657 29.064C442.518 29.0853 442.39 29.096 442.273 29.096C441.889 29.096 441.574 29.0107 441.329 28.84C441.094 28.6587 440.956 28.4133 440.913 28.104L440.865 27.432C440.492 27.9973 440.012 28.4293 439.425 28.728C438.838 29.016 438.193 29.16 437.489 29.16C436.625 29.16 435.969 28.8827 435.521 28.328C435.073 27.7627 434.849 26.9413 434.849 25.864ZM449.844 29.16C449.193 29.16 448.617 29.016 448.116 28.728C447.625 28.4293 447.241 28.0293 446.964 27.528V32.408H444.82V20.616H446.692V22.056C447.012 21.5653 447.417 21.1813 447.908 20.904C448.398 20.616 448.958 20.472 449.588 20.472C450.153 20.472 450.67 20.584 451.14 20.808C451.62 21.032 452.036 21.3467 452.388 21.752C452.74 22.1467 453.012 22.6053 453.204 23.128C453.406 23.64 453.508 24.1947 453.508 24.792C453.508 25.6027 453.348 26.3387 453.028 27C452.718 27.6613 452.286 28.1893 451.732 28.584C451.188 28.968 450.558 29.16 449.844 29.16ZM449.124 27.336C449.454 27.336 449.753 27.2667 450.02 27.128C450.286 26.9893 450.516 26.8027 450.708 26.568C450.91 26.3227 451.06 26.0507 451.156 25.752C451.262 25.4427 451.316 25.1227 451.316 24.792C451.316 24.44 451.257 24.1147 451.14 23.816C451.033 23.5173 450.873 23.256 450.66 23.032C450.446 22.7973 450.196 22.616 449.908 22.488C449.63 22.36 449.326 22.296 448.996 22.296C448.793 22.296 448.585 22.3333 448.372 22.408C448.169 22.472 447.972 22.568 447.78 22.696C447.588 22.824 447.417 22.9733 447.268 23.144C447.129 23.3147 447.028 23.5013 446.964 23.704V25.672C447.092 25.9813 447.262 26.264 447.476 26.52C447.7 26.776 447.956 26.9787 448.244 27.128C448.532 27.2667 448.825 27.336 449.124 27.336ZM458.848 29.16C458.176 29.16 457.568 29.048 457.024 28.824C456.48 28.5893 456.016 28.2747 455.632 27.88C455.248 27.4747 454.95 27.016 454.736 26.504C454.534 25.9813 454.432 25.432 454.432 24.856C454.432 24.056 454.608 23.3253 454.96 22.664C455.323 22.0027 455.835 21.4747 456.496 21.08C457.168 20.6747 457.958 20.472 458.864 20.472C459.782 20.472 460.566 20.6747 461.216 21.08C461.867 21.4747 462.363 22.0027 462.704 22.664C463.056 23.3147 463.232 24.0187 463.232 24.776C463.232 24.904 463.227 25.0373 463.216 25.176C463.206 25.304 463.195 25.4107 463.184 25.496H456.704C456.747 25.9227 456.87 26.296 457.072 26.616C457.286 26.936 457.552 27.1813 457.872 27.352C458.203 27.512 458.555 27.592 458.928 27.592C459.355 27.592 459.755 27.4907 460.128 27.288C460.512 27.0747 460.774 26.7973 460.912 26.456L462.752 26.968C462.55 27.3947 462.256 27.7733 461.872 28.104C461.499 28.4347 461.056 28.696 460.544 28.888C460.032 29.0693 459.467 29.16 458.848 29.16ZM456.656 24.136H461.04C460.998 23.7093 460.875 23.3413 460.672 23.032C460.48 22.712 460.224 22.4667 459.904 22.296C459.584 22.1147 459.227 22.024 458.832 22.024C458.448 22.024 458.096 22.1147 457.776 22.296C457.467 22.4667 457.211 22.712 457.008 23.032C456.816 23.3413 456.699 23.7093 456.656 24.136ZM469.531 22.472C468.88 22.472 468.299 22.6 467.786 22.856C467.275 23.1013 466.907 23.4587 466.683 23.928V29H464.539V20.616H466.507V22.408C466.805 21.832 467.184 21.3787 467.643 21.048C468.101 20.7173 468.587 20.536 469.099 20.504C469.216 20.504 469.307 20.504 469.371 20.504C469.435 20.504 469.488 20.5093 469.531 20.52V22.472ZM470.726 29V20.616H472.87V29H470.726ZM470.726 19.448V17.32H472.87V19.448H470.726ZM478.676 29.16C477.993 29.16 477.38 29.048 476.836 28.824C476.292 28.5893 475.828 28.2693 475.444 27.864C475.071 27.4587 474.783 26.9947 474.58 26.472C474.377 25.9493 474.276 25.4 474.276 24.824C474.276 24.2373 474.377 23.6827 474.58 23.16C474.783 22.6373 475.071 22.1733 475.444 21.768C475.828 21.3627 476.292 21.048 476.836 20.824C477.38 20.5893 477.993 20.472 478.676 20.472C479.359 20.472 479.967 20.5893 480.5 20.824C481.044 21.048 481.508 21.3627 481.892 21.768C482.276 22.1733 482.564 22.6373 482.756 23.16C482.959 23.6827 483.06 24.2373 483.06 24.824C483.06 25.4 482.959 25.9493 482.756 26.472C482.564 26.9947 482.276 27.4587 481.892 27.864C481.519 28.2693 481.06 28.5893 480.516 28.824C479.972 29.048 479.359 29.16 478.676 29.16ZM476.484 24.824C476.484 25.3147 476.58 25.752 476.772 26.136C476.964 26.5093 477.225 26.8027 477.556 27.016C477.887 27.2293 478.26 27.336 478.676 27.336C479.081 27.336 479.449 27.2293 479.78 27.016C480.111 26.792 480.372 26.4933 480.564 26.12C480.767 25.736 480.868 25.2987 480.868 24.808C480.868 24.328 480.767 23.896 480.564 23.512C480.372 23.128 480.111 22.8293 479.78 22.616C479.449 22.4027 479.081 22.296 478.676 22.296C478.26 22.296 477.887 22.408 477.556 22.632C477.225 22.8453 476.964 23.144 476.772 23.528C476.58 23.9013 476.484 24.3333 476.484 24.824ZM489.499 22.472C488.849 22.472 488.267 22.6 487.755 22.856C487.243 23.1013 486.875 23.4587 486.651 23.928V29H484.507V20.616H486.475V22.408C486.774 21.832 487.153 21.3787 487.611 21.048C488.07 20.7173 488.555 20.536 489.067 20.504C489.185 20.504 489.275 20.504 489.339 20.504C489.403 20.504 489.457 20.5093 489.499 20.52V22.472ZM493.667 24.808C493.667 23.9973 493.827 23.2667 494.147 22.616C494.467 21.9547 494.91 21.432 495.475 21.048C496.04 20.664 496.686 20.472 497.411 20.472C498.03 20.472 498.584 20.6267 499.075 20.936C499.576 21.2347 499.966 21.6187 500.243 22.088V17.32H502.387V26.6C502.387 26.824 502.424 26.984 502.499 27.08C502.574 27.176 502.702 27.2347 502.883 27.256V29C502.51 29.0747 502.206 29.112 501.971 29.112C501.587 29.112 501.267 29.016 501.011 28.824C500.766 28.632 500.627 28.3813 500.595 28.072L500.563 27.544C500.254 28.0667 499.832 28.4667 499.299 28.744C498.776 29.0213 498.227 29.16 497.651 29.16C497.075 29.16 496.542 29.048 496.051 28.824C495.571 28.6 495.15 28.2907 494.787 27.896C494.435 27.5013 494.158 27.0427 493.955 26.52C493.763 25.9867 493.667 25.416 493.667 24.808ZM500.243 25.928V23.928C500.136 23.6187 499.966 23.3413 499.731 23.096C499.496 22.8507 499.235 22.6587 498.947 22.52C498.659 22.3707 498.371 22.296 498.083 22.296C497.752 22.296 497.454 22.3653 497.187 22.504C496.92 22.6427 496.686 22.8293 496.483 23.064C496.291 23.2987 496.142 23.5707 496.035 23.88C495.939 24.1893 495.891 24.5147 495.891 24.856C495.891 25.1973 495.944 25.5227 496.051 25.832C496.168 26.1307 496.334 26.392 496.547 26.616C496.76 26.84 497.006 27.016 497.283 27.144C497.571 27.272 497.88 27.336 498.211 27.336C498.414 27.336 498.616 27.304 498.819 27.24C499.032 27.1653 499.23 27.0693 499.411 26.952C499.603 26.824 499.768 26.6747 499.907 26.504C500.056 26.3227 500.168 26.1307 500.243 25.928ZM508.38 29.16C507.708 29.16 507.1 29.048 506.556 28.824C506.012 28.5893 505.548 28.2747 505.164 27.88C504.78 27.4747 504.481 27.016 504.268 26.504C504.065 25.9813 503.964 25.432 503.964 24.856C503.964 24.056 504.14 23.3253 504.492 22.664C504.854 22.0027 505.366 21.4747 506.028 21.08C506.7 20.6747 507.489 20.472 508.396 20.472C509.313 20.472 510.097 20.6747 510.748 21.08C511.398 21.4747 511.894 22.0027 512.236 22.664C512.588 23.3147 512.764 24.0187 512.764 24.776C512.764 24.904 512.758 25.0373 512.748 25.176C512.737 25.304 512.726 25.4107 512.716 25.496H506.236C506.278 25.9227 506.401 26.296 506.604 26.616C506.817 26.936 507.084 27.1813 507.404 27.352C507.734 27.512 508.086 27.592 508.46 27.592C508.886 27.592 509.286 27.4907 509.66 27.288C510.044 27.0747 510.305 26.7973 510.444 26.456L512.284 26.968C512.081 27.3947 511.788 27.7733 511.404 28.104C511.03 28.4347 510.588 28.696 510.076 28.888C509.564 29.0693 508.998 29.16 508.38 29.16ZM506.188 24.136H510.572C510.529 23.7093 510.406 23.3413 510.204 23.032C510.012 22.712 509.756 22.4667 509.436 22.296C509.116 22.1147 508.758 22.024 508.364 22.024C507.98 22.024 507.628 22.1147 507.308 22.296C506.998 22.4667 506.742 22.712 506.54 23.032C506.348 23.3413 506.23 23.7093 506.188 24.136ZM518.122 29V17.64H522.25C523.487 17.64 524.522 17.896 525.354 18.408C526.186 18.9093 526.81 19.592 527.226 20.456C527.642 21.3093 527.85 22.2587 527.85 23.304C527.85 24.456 527.62 25.4587 527.162 26.312C526.703 27.1653 526.052 27.8267 525.21 28.296C524.378 28.7653 523.391 29 522.25 29H518.122ZM525.626 23.304C525.626 22.568 525.492 21.9227 525.226 21.368C524.959 20.8027 524.575 20.3653 524.074 20.056C523.572 19.736 522.964 19.576 522.25 19.576H520.33V27.064H522.25C522.975 27.064 523.588 26.904 524.09 26.584C524.591 26.2533 524.97 25.8053 525.226 25.24C525.492 24.664 525.626 24.0187 525.626 23.304ZM533.255 29.16C532.583 29.16 531.975 29.048 531.431 28.824C530.887 28.5893 530.423 28.2747 530.039 27.88C529.655 27.4747 529.356 27.016 529.143 26.504C528.94 25.9813 528.839 25.432 528.839 24.856C528.839 24.056 529.015 23.3253 529.367 22.664C529.729 22.0027 530.241 21.4747 530.903 21.08C531.575 20.6747 532.364 20.472 533.271 20.472C534.188 20.472 534.972 20.6747 535.623 21.08C536.273 21.4747 536.769 22.0027 537.111 22.664C537.463 23.3147 537.639 24.0187 537.639 24.776C537.639 24.904 537.633 25.0373 537.623 25.176C537.612 25.304 537.601 25.4107 537.591 25.496H531.111C531.153 25.9227 531.276 26.296 531.479 26.616C531.692 26.936 531.959 27.1813 532.279 27.352C532.609 27.512 532.961 27.592 533.335 27.592C533.761 27.592 534.161 27.4907 534.535 27.288C534.919 27.0747 535.18 26.7973 535.319 26.456L537.159 26.968C536.956 27.3947 536.663 27.7733 536.279 28.104C535.905 28.4347 535.463 28.696 534.951 28.888C534.439 29.0693 533.873 29.16 533.255 29.16ZM531.063 24.136H535.447C535.404 23.7093 535.281 23.3413 535.079 23.032C534.887 22.712 534.631 22.4667 534.311 22.296C533.991 22.1147 533.633 22.024 533.239 22.024C532.855 22.024 532.503 22.1147 532.183 22.296C531.873 22.4667 531.617 22.712 531.415 23.032C531.223 23.3413 531.105 23.7093 531.063 24.136ZM542.033 29.16C541.318 29.16 540.635 29.0427 539.985 28.808C539.334 28.5733 538.774 28.2267 538.305 27.768L539.073 26.376C539.574 26.7813 540.065 27.08 540.545 27.272C541.035 27.464 541.505 27.56 541.953 27.56C542.369 27.56 542.699 27.4853 542.945 27.336C543.201 27.1867 543.329 26.9627 543.329 26.664C543.329 26.4613 543.259 26.3067 543.121 26.2C542.982 26.0827 542.779 25.9813 542.513 25.896C542.257 25.8107 541.942 25.7147 541.569 25.608C540.95 25.4053 540.433 25.208 540.017 25.016C539.601 24.824 539.286 24.584 539.073 24.296C538.87 23.9973 538.769 23.6187 538.769 23.16C538.769 22.6053 538.907 22.1307 539.185 21.736C539.473 21.3307 539.867 21.016 540.369 20.792C540.881 20.568 541.478 20.456 542.161 20.456C542.758 20.456 543.323 20.552 543.857 20.744C544.39 20.9253 544.875 21.224 545.313 21.64L544.449 23C544.022 22.6693 543.617 22.4293 543.233 22.28C542.849 22.12 542.459 22.04 542.065 22.04C541.841 22.04 541.627 22.0667 541.425 22.12C541.233 22.1733 541.073 22.264 540.945 22.392C540.827 22.5093 540.769 22.68 540.769 22.904C540.769 23.1067 540.822 23.2667 540.929 23.384C541.046 23.4907 541.217 23.5867 541.441 23.672C541.675 23.7573 541.958 23.8533 542.289 23.96C542.961 24.152 543.526 24.3493 543.985 24.552C544.454 24.7547 544.806 25.0053 545.041 25.304C545.275 25.592 545.393 25.992 545.393 26.504C545.393 27.336 545.089 27.9867 544.481 28.456C543.873 28.9253 543.057 29.16 542.033 29.16ZM546.275 26.52C546.275 25.976 546.424 25.5013 546.723 25.096C547.032 24.68 547.459 24.36 548.003 24.136C548.547 23.912 549.171 23.8 549.875 23.8C550.227 23.8 550.584 23.8267 550.947 23.88C551.31 23.9333 551.624 24.0187 551.891 24.136V23.688C551.891 23.1547 551.731 22.744 551.411 22.456C551.102 22.168 550.638 22.024 550.019 22.024C549.56 22.024 549.123 22.104 548.707 22.264C548.291 22.424 547.854 22.6587 547.395 22.968L546.707 21.56C547.262 21.1973 547.827 20.9253 548.403 20.744C548.99 20.5627 549.603 20.472 550.243 20.472C551.438 20.472 552.366 20.7707 553.027 21.368C553.699 21.9653 554.035 22.8187 554.035 23.928V26.6C554.035 26.824 554.072 26.984 554.147 27.08C554.232 27.176 554.366 27.2347 554.547 27.256V29C554.355 29.032 554.179 29.0587 554.019 29.08C553.87 29.1013 553.742 29.112 553.635 29.112C553.208 29.112 552.883 29.016 552.659 28.824C552.446 28.632 552.312 28.3973 552.259 28.12L552.211 27.688C551.848 28.1573 551.395 28.52 550.851 28.776C550.307 29.032 549.752 29.16 549.187 29.16C548.632 29.16 548.131 29.048 547.683 28.824C547.246 28.5893 546.899 28.2747 546.643 27.88C546.398 27.4747 546.275 27.0213 546.275 26.52ZM551.491 26.952C551.608 26.824 551.704 26.696 551.779 26.568C551.854 26.44 551.891 26.3227 551.891 26.216V25.368C551.635 25.2613 551.358 25.1813 551.059 25.128C550.76 25.064 550.478 25.032 550.211 25.032C549.656 25.032 549.198 25.1547 548.835 25.4C548.483 25.6347 548.307 25.9493 548.307 26.344C548.307 26.5573 548.366 26.76 548.483 26.952C548.6 27.144 548.771 27.2987 548.995 27.416C549.219 27.5333 549.486 27.592 549.795 27.592C550.115 27.592 550.43 27.5333 550.739 27.416C551.048 27.288 551.299 27.1333 551.491 26.952ZM561.031 22.472C560.38 22.472 559.799 22.6 559.286 22.856C558.775 23.1013 558.407 23.4587 558.183 23.928V29H556.039V20.616H558.007V22.408C558.305 21.832 558.684 21.3787 559.143 21.048C559.601 20.7173 560.087 20.536 560.599 20.504C560.716 20.504 560.807 20.504 560.871 20.504C560.935 20.504 560.988 20.5093 561.031 20.52V22.472ZM567.218 22.472C566.567 22.472 565.986 22.6 565.474 22.856C564.962 23.1013 564.594 23.4587 564.37 23.928V29H562.226V20.616H564.194V22.408C564.493 21.832 564.871 21.3787 565.33 21.048C565.789 20.7173 566.274 20.536 566.786 20.504C566.903 20.504 566.994 20.504 567.058 20.504C567.122 20.504 567.175 20.5093 567.218 20.52V22.472ZM572.176 29.16C571.493 29.16 570.88 29.048 570.336 28.824C569.792 28.5893 569.328 28.2693 568.944 27.864C568.571 27.4587 568.283 26.9947 568.08 26.472C567.877 25.9493 567.776 25.4 567.776 24.824C567.776 24.2373 567.877 23.6827 568.08 23.16C568.283 22.6373 568.571 22.1733 568.944 21.768C569.328 21.3627 569.792 21.048 570.336 20.824C570.88 20.5893 571.493 20.472 572.176 20.472C572.859 20.472 573.467 20.5893 574 20.824C574.544 21.048 575.008 21.3627 575.392 21.768C575.776 22.1733 576.064 22.6373 576.256 23.16C576.459 23.6827 576.56 24.2373 576.56 24.824C576.56 25.4 576.459 25.9493 576.256 26.472C576.064 26.9947 575.776 27.4587 575.392 27.864C575.019 28.2693 574.56 28.5893 574.016 28.824C573.472 29.048 572.859 29.16 572.176 29.16ZM569.984 24.824C569.984 25.3147 570.08 25.752 570.272 26.136C570.464 26.5093 570.725 26.8027 571.056 27.016C571.387 27.2293 571.76 27.336 572.176 27.336C572.581 27.336 572.949 27.2293 573.28 27.016C573.611 26.792 573.872 26.4933 574.064 26.12C574.267 25.736 574.368 25.2987 574.368 24.808C574.368 24.328 574.267 23.896 574.064 23.512C573.872 23.128 573.611 22.8293 573.28 22.616C572.949 22.4027 572.581 22.296 572.176 22.296C571.76 22.296 571.387 22.408 571.056 22.632C570.725 22.8453 570.464 23.144 570.272 23.528C570.08 23.9013 569.984 24.3333 569.984 24.824ZM577.991 17.32H580.135V26.312C580.135 26.696 580.199 26.9573 580.327 27.096C580.455 27.224 580.631 27.288 580.855 27.288C581.026 27.288 581.202 27.2667 581.383 27.224C581.565 27.1813 581.725 27.128 581.863 27.064L582.151 28.696C581.863 28.8347 581.527 28.9413 581.143 29.016C580.759 29.0907 580.413 29.128 580.103 29.128C579.431 29.128 578.909 28.952 578.535 28.6C578.173 28.2373 577.991 27.7253 577.991 27.064V17.32ZM583.069 17.32H585.213V26.312C585.213 26.696 585.277 26.9573 585.405 27.096C585.533 27.224 585.709 27.288 585.933 27.288C586.104 27.288 586.28 27.2667 586.461 27.224C586.643 27.1813 586.803 27.128 586.941 27.064L587.229 28.696C586.941 28.8347 586.605 28.9413 586.221 29.016C585.837 29.0907 585.491 29.128 585.181 29.128C584.509 29.128 583.987 28.952 583.613 28.6C583.251 28.2373 583.069 27.7253 583.069 27.064V17.32ZM592.036 29.16C591.353 29.16 590.74 29.048 590.196 28.824C589.652 28.5893 589.188 28.2693 588.804 27.864C588.43 27.4587 588.142 26.9947 587.94 26.472C587.737 25.9493 587.636 25.4 587.636 24.824C587.636 24.2373 587.737 23.6827 587.94 23.16C588.142 22.6373 588.43 22.1733 588.804 21.768C589.188 21.3627 589.652 21.048 590.196 20.824C590.74 20.5893 591.353 20.472 592.036 20.472C592.718 20.472 593.326 20.5893 593.86 20.824C594.404 21.048 594.868 21.3627 595.252 21.768C595.636 22.1733 595.924 22.6373 596.116 23.16C596.318 23.6827 596.42 24.2373 596.42 24.824C596.42 25.4 596.318 25.9493 596.116 26.472C595.924 26.9947 595.636 27.4587 595.252 27.864C594.878 28.2693 594.42 28.5893 593.876 28.824C593.332 29.048 592.718 29.16 592.036 29.16ZM589.844 24.824C589.844 25.3147 589.94 25.752 590.132 26.136C590.324 26.5093 590.585 26.8027 590.916 27.016C591.246 27.2293 591.62 27.336 592.036 27.336C592.441 27.336 592.809 27.2293 593.14 27.016C593.47 26.792 593.732 26.4933 593.924 26.12C594.126 25.736 594.228 25.2987 594.228 24.808C594.228 24.328 594.126 23.896 593.924 23.512C593.732 23.128 593.47 22.8293 593.14 22.616C592.809 22.4027 592.441 22.296 592.036 22.296C591.62 22.296 591.246 22.408 590.916 22.632C590.585 22.8453 590.324 23.144 590.132 23.528C589.94 23.9013 589.844 24.3333 589.844 24.824ZM601.198 24.808C601.198 23.9973 601.358 23.2667 601.678 22.616C601.998 21.9547 602.441 21.432 603.006 21.048C603.572 20.664 604.217 20.472 604.942 20.472C605.561 20.472 606.116 20.6267 606.606 20.936C607.108 21.2347 607.497 21.6187 607.774 22.088V17.32H609.918V26.6C609.918 26.824 609.956 26.984 610.03 27.08C610.105 27.176 610.233 27.2347 610.414 27.256V29C610.041 29.0747 609.737 29.112 609.502 29.112C609.118 29.112 608.798 29.016 608.542 28.824C608.297 28.632 608.158 28.3813 608.126 28.072L608.094 27.544C607.785 28.0667 607.364 28.4667 606.83 28.744C606.308 29.0213 605.758 29.16 605.182 29.16C604.606 29.16 604.073 29.048 603.582 28.824C603.102 28.6 602.681 28.2907 602.318 27.896C601.966 27.5013 601.689 27.0427 601.486 26.52C601.294 25.9867 601.198 25.416 601.198 24.808ZM607.774 25.928V23.928C607.668 23.6187 607.497 23.3413 607.262 23.096C607.028 22.8507 606.766 22.6587 606.478 22.52C606.19 22.3707 605.902 22.296 605.614 22.296C605.284 22.296 604.985 22.3653 604.718 22.504C604.452 22.6427 604.217 22.8293 604.014 23.064C603.822 23.2987 603.673 23.5707 603.566 23.88C603.47 24.1893 603.422 24.5147 603.422 24.856C603.422 25.1973 603.476 25.5227 603.582 25.832C603.7 26.1307 603.865 26.392 604.078 26.616C604.292 26.84 604.537 27.016 604.814 27.144C605.102 27.272 605.412 27.336 605.742 27.336C605.945 27.336 606.148 27.304 606.35 27.24C606.564 27.1653 606.761 27.0693 606.942 26.952C607.134 26.824 607.3 26.6747 607.438 26.504C607.588 26.3227 607.7 26.1307 607.774 25.928ZM615.911 29.16C615.239 29.16 614.631 29.048 614.087 28.824C613.543 28.5893 613.079 28.2747 612.695 27.88C612.311 27.4747 612.012 27.016 611.799 26.504C611.596 25.9813 611.495 25.432 611.495 24.856C611.495 24.056 611.671 23.3253 612.023 22.664C612.386 22.0027 612.898 21.4747 613.559 21.08C614.231 20.6747 615.02 20.472 615.927 20.472C616.844 20.472 617.628 20.6747 618.279 21.08C618.93 21.4747 619.426 22.0027 619.767 22.664C620.119 23.3147 620.295 24.0187 620.295 24.776C620.295 24.904 620.29 25.0373 620.279 25.176C620.268 25.304 620.258 25.4107 620.247 25.496H613.767C613.81 25.9227 613.932 26.296 614.135 26.616C614.348 26.936 614.615 27.1813 614.935 27.352C615.266 27.512 615.618 27.592 615.991 27.592C616.418 27.592 616.818 27.4907 617.191 27.288C617.575 27.0747 617.836 26.7973 617.975 26.456L619.815 26.968C619.612 27.3947 619.319 27.7733 618.935 28.104C618.562 28.4347 618.119 28.696 617.607 28.888C617.095 29.0693 616.53 29.16 615.911 29.16ZM613.719 24.136H618.103C618.06 23.7093 617.938 23.3413 617.735 23.032C617.543 22.712 617.287 22.4667 616.967 22.296C616.647 22.1147 616.29 22.024 615.895 22.024C615.511 22.024 615.159 22.1147 614.839 22.296C614.53 22.4667 614.274 22.712 614.071 23.032C613.879 23.3413 613.762 23.7093 613.719 24.136ZM632.421 20.616C632.346 20.5413 632.207 20.44 632.005 20.312C631.813 20.184 631.573 20.0613 631.285 19.944C631.007 19.8267 630.703 19.7253 630.373 19.64C630.042 19.544 629.706 19.496 629.365 19.496C628.767 19.496 628.314 19.608 628.005 19.832C627.706 20.056 627.557 20.3707 627.557 20.776C627.557 21.0853 627.653 21.3307 627.845 21.512C628.037 21.6933 628.325 21.848 628.709 21.976C629.093 22.104 629.573 22.2427 630.149 22.392C630.895 22.5733 631.541 22.7973 632.085 23.064C632.639 23.32 633.061 23.6613 633.349 24.088C633.647 24.504 633.797 25.0587 633.797 25.752C633.797 26.36 633.685 26.8827 633.461 27.32C633.237 27.7467 632.927 28.0933 632.533 28.36C632.138 28.6267 631.69 28.824 631.189 28.952C630.687 29.0693 630.154 29.128 629.589 29.128C629.023 29.128 628.458 29.0693 627.893 28.952C627.327 28.8347 626.783 28.6693 626.261 28.456C625.738 28.232 625.258 27.9653 624.821 27.656L625.797 25.752C625.893 25.848 626.063 25.976 626.309 26.136C626.554 26.2853 626.853 26.44 627.205 26.6C627.557 26.7493 627.941 26.8773 628.357 26.984C628.773 27.0907 629.194 27.144 629.621 27.144C630.218 27.144 630.671 27.0427 630.981 26.84C631.29 26.6373 631.445 26.3493 631.445 25.976C631.445 25.6347 631.322 25.368 631.077 25.176C630.831 24.984 630.49 24.8187 630.053 24.68C629.615 24.5307 629.098 24.3707 628.501 24.2C627.786 23.9973 627.189 23.7733 626.709 23.528C626.229 23.272 625.871 22.952 625.637 22.568C625.402 22.184 625.285 21.704 625.285 21.128C625.285 20.3493 625.466 19.6987 625.829 19.176C626.202 18.6427 626.703 18.2427 627.333 17.976C627.962 17.6987 628.661 17.56 629.429 17.56C629.962 17.56 630.463 17.6187 630.933 17.736C631.413 17.8533 631.861 18.008 632.277 18.2C632.693 18.392 633.066 18.6 633.397 18.824L632.421 20.616ZM639.129 29.16C638.447 29.16 637.833 29.048 637.289 28.824C636.745 28.5893 636.281 28.2693 635.897 27.864C635.524 27.4587 635.236 26.9947 635.033 26.472C634.831 25.9493 634.729 25.4 634.729 24.824C634.729 24.2373 634.831 23.6827 635.033 23.16C635.236 22.6373 635.524 22.1733 635.897 21.768C636.281 21.3627 636.745 21.048 637.289 20.824C637.833 20.5893 638.447 20.472 639.129 20.472C639.812 20.472 640.42 20.5893 640.953 20.824C641.497 21.048 641.961 21.3627 642.345 21.768C642.729 22.1733 643.017 22.6373 643.209 23.16C643.412 23.6827 643.513 24.2373 643.513 24.824C643.513 25.4 643.412 25.9493 643.209 26.472C643.017 26.9947 642.729 27.4587 642.345 27.864C641.972 28.2693 641.513 28.5893 640.969 28.824C640.425 29.048 639.812 29.16 639.129 29.16ZM636.937 24.824C636.937 25.3147 637.033 25.752 637.225 26.136C637.417 26.5093 637.679 26.8027 638.009 27.016C638.34 27.2293 638.713 27.336 639.129 27.336C639.535 27.336 639.903 27.2293 640.233 27.016C640.564 26.792 640.825 26.4933 641.017 26.12C641.22 25.736 641.321 25.2987 641.321 24.808C641.321 24.328 641.22 23.896 641.017 23.512C640.825 23.128 640.564 22.8293 640.233 22.616C639.903 22.4027 639.535 22.296 639.129 22.296C638.713 22.296 638.34 22.408 638.009 22.632C637.679 22.8453 637.417 23.144 637.225 23.528C637.033 23.9013 636.937 24.3333 636.937 24.824ZM645.394 29V22.696H644.29V21.064H645.394V20.552C645.394 19.8587 645.506 19.2613 645.73 18.76C645.965 18.248 646.29 17.8533 646.706 17.576C647.133 17.2987 647.629 17.16 648.194 17.16C648.536 17.16 648.877 17.2027 649.218 17.288C649.57 17.3733 649.917 17.496 650.258 17.656L649.826 19.272C649.666 19.1867 649.48 19.1173 649.266 19.064C649.053 19 648.85 18.968 648.658 18.968C648.296 18.968 648.018 19.096 647.826 19.352C647.634 19.608 647.538 19.9813 647.538 20.472V21.064H649.586V22.696H647.538V29H645.394ZM655.828 28.568C655.647 28.6427 655.428 28.728 655.172 28.824C654.916 28.92 654.639 28.9947 654.34 29.048C654.052 29.112 653.759 29.144 653.46 29.144C653.065 29.144 652.703 29.0747 652.372 28.936C652.041 28.7973 651.775 28.5787 651.572 28.28C651.38 27.9707 651.284 27.5707 651.284 27.08V22.264H650.18V20.616H651.284V17.896H653.428V20.616H655.188V22.264H653.428V26.36C653.439 26.648 653.519 26.856 653.668 26.984C653.817 27.112 654.004 27.176 654.228 27.176C654.452 27.176 654.671 27.1387 654.884 27.064C655.097 26.9893 655.268 26.9253 655.396 26.872L655.828 28.568ZM667.314 20.616H669.346L665.842 29H664.05L662.642 25.4L661.266 29H659.458L655.97 20.616H657.986L660.482 26.952L661.458 24.216L660.002 20.632H661.778L662.642 23.192L663.522 20.632H665.298L663.842 24.216L664.834 26.952L667.314 20.616ZM669.556 26.52C669.556 25.976 669.706 25.5013 670.004 25.096C670.314 24.68 670.74 24.36 671.284 24.136C671.828 23.912 672.452 23.8 673.156 23.8C673.508 23.8 673.866 23.8267 674.228 23.88C674.591 23.9333 674.906 24.0187 675.172 24.136V23.688C675.172 23.1547 675.012 22.744 674.692 22.456C674.383 22.168 673.919 22.024 673.3 22.024C672.842 22.024 672.404 22.104 671.988 22.264C671.572 22.424 671.135 22.6587 670.676 22.968L669.988 21.56C670.543 21.1973 671.108 20.9253 671.684 20.744C672.271 20.5627 672.884 20.472 673.524 20.472C674.719 20.472 675.647 20.7707 676.308 21.368C676.98 21.9653 677.316 22.8187 677.316 23.928V26.6C677.316 26.824 677.354 26.984 677.428 27.08C677.514 27.176 677.647 27.2347 677.828 27.256V29C677.636 29.032 677.46 29.0587 677.3 29.08C677.151 29.1013 677.023 29.112 676.916 29.112C676.49 29.112 676.164 29.016 675.94 28.824C675.727 28.632 675.594 28.3973 675.54 28.12L675.492 27.688C675.13 28.1573 674.676 28.52 674.132 28.776C673.588 29.032 673.034 29.16 672.468 29.16C671.914 29.16 671.412 29.048 670.964 28.824C670.527 28.5893 670.18 28.2747 669.924 27.88C669.679 27.4747 669.556 27.0213 669.556 26.52ZM674.772 26.952C674.89 26.824 674.986 26.696 675.06 26.568C675.135 26.44 675.172 26.3227 675.172 26.216V25.368C674.916 25.2613 674.639 25.1813 674.34 25.128C674.042 25.064 673.759 25.032 673.492 25.032C672.938 25.032 672.479 25.1547 672.116 25.4C671.764 25.6347 671.588 25.9493 671.588 26.344C671.588 26.5573 671.647 26.76 671.764 26.952C671.882 27.144 672.052 27.2987 672.276 27.416C672.5 27.5333 672.767 27.592 673.076 27.592C673.396 27.592 673.711 27.5333 674.02 27.416C674.33 27.288 674.58 27.1333 674.772 26.952ZM684.312 22.472C683.661 22.472 683.08 22.6 682.568 22.856C682.056 23.1013 681.688 23.4587 681.464 23.928V29H679.32V20.616H681.288V22.408C681.586 21.832 681.965 21.3787 682.424 21.048C682.882 20.7173 683.368 20.536 683.88 20.504C683.997 20.504 684.088 20.504 684.152 20.504C684.216 20.504 684.269 20.5093 684.312 20.52V22.472ZM689.286 29.16C688.614 29.16 688.006 29.048 687.462 28.824C686.918 28.5893 686.454 28.2747 686.07 27.88C685.686 27.4747 685.387 27.016 685.174 26.504C684.971 25.9813 684.87 25.432 684.87 24.856C684.87 24.056 685.046 23.3253 685.398 22.664C685.761 22.0027 686.273 21.4747 686.934 21.08C687.606 20.6747 688.395 20.472 689.302 20.472C690.219 20.472 691.003 20.6747 691.654 21.08C692.305 21.4747 692.801 22.0027 693.142 22.664C693.494 23.3147 693.67 24.0187 693.67 24.776C693.67 24.904 693.665 25.0373 693.654 25.176C693.643 25.304 693.633 25.4107 693.622 25.496H687.142C687.185 25.9227 687.307 26.296 687.51 26.616C687.723 26.936 687.99 27.1813 688.31 27.352C688.641 27.512 688.993 27.592 689.366 27.592C689.793 27.592 690.193 27.4907 690.566 27.288C690.95 27.0747 691.211 26.7973 691.35 26.456L693.19 26.968C692.987 27.3947 692.694 27.7733 692.31 28.104C691.937 28.4347 691.494 28.696 690.982 28.888C690.47 29.0693 689.905 29.16 689.286 29.16ZM687.094 24.136H691.478C691.435 23.7093 691.313 23.3413 691.11 23.032C690.918 22.712 690.662 22.4667 690.342 22.296C690.022 22.1147 689.665 22.024 689.27 22.024C688.886 22.024 688.534 22.1147 688.214 22.296C687.905 22.4667 687.649 22.712 687.446 23.032C687.254 23.3413 687.137 23.7093 687.094 24.136ZM429.465 48V36.64H431.673V48H429.465ZM441.627 48H439.483V43.296C439.483 42.624 439.366 42.1333 439.131 41.824C438.897 41.5147 438.571 41.36 438.155 41.36C437.867 41.36 437.574 41.4347 437.275 41.584C436.987 41.7333 436.726 41.9413 436.491 42.208C436.257 42.464 436.086 42.7627 435.979 43.104V48H433.835V39.616H435.771V41.168C435.985 40.8053 436.257 40.5013 436.587 40.256C436.918 40 437.297 39.808 437.723 39.68C438.161 39.5413 438.619 39.472 439.099 39.472C439.622 39.472 440.049 39.568 440.379 39.76C440.721 39.9413 440.977 40.192 441.147 40.512C441.329 40.8213 441.451 41.1733 441.515 41.568C441.59 41.9627 441.627 42.3627 441.627 42.768V48ZM446.58 48.16C445.865 48.16 445.182 48.0427 444.532 47.808C443.881 47.5733 443.321 47.2267 442.852 46.768L443.62 45.376C444.121 45.7813 444.612 46.08 445.092 46.272C445.582 46.464 446.052 46.56 446.5 46.56C446.916 46.56 447.246 46.4853 447.492 46.336C447.748 46.1867 447.876 45.9627 447.876 45.664C447.876 45.4613 447.806 45.3067 447.668 45.2C447.529 45.0827 447.326 44.9813 447.06 44.896C446.804 44.8107 446.489 44.7147 446.116 44.608C445.497 44.4053 444.98 44.208 444.564 44.016C444.148 43.824 443.833 43.584 443.62 43.296C443.417 42.9973 443.316 42.6187 443.316 42.16C443.316 41.6053 443.454 41.1307 443.732 40.736C444.02 40.3307 444.414 40.016 444.916 39.792C445.428 39.568 446.025 39.456 446.708 39.456C447.305 39.456 447.87 39.552 448.404 39.744C448.937 39.9253 449.422 40.224 449.86 40.64L448.996 42C448.569 41.6693 448.164 41.4293 447.78 41.28C447.396 41.12 447.006 41.04 446.612 41.04C446.388 41.04 446.174 41.0667 445.972 41.12C445.78 41.1733 445.62 41.264 445.492 41.392C445.374 41.5093 445.316 41.68 445.316 41.904C445.316 42.1067 445.369 42.2667 445.476 42.384C445.593 42.4907 445.764 42.5867 445.988 42.672C446.222 42.7573 446.505 42.8533 446.836 42.96C447.508 43.152 448.073 43.3493 448.532 43.552C449.001 43.7547 449.353 44.0053 449.588 44.304C449.822 44.592 449.94 44.992 449.94 45.504C449.94 46.336 449.636 46.9867 449.028 47.456C448.42 47.9253 447.604 48.16 446.58 48.16ZM456.375 47.568C456.194 47.6427 455.975 47.728 455.719 47.824C455.463 47.92 455.186 47.9947 454.887 48.048C454.599 48.112 454.306 48.144 454.007 48.144C453.612 48.144 453.25 48.0747 452.919 47.936C452.588 47.7973 452.322 47.5787 452.119 47.28C451.927 46.9707 451.831 46.5707 451.831 46.08V41.264H450.727V39.616H451.831V36.896H453.975V39.616H455.735V41.264H453.975V45.36C453.986 45.648 454.066 45.856 454.215 45.984C454.364 46.112 454.551 46.176 454.775 46.176C454.999 46.176 455.218 46.1387 455.431 46.064C455.644 45.9893 455.815 45.9253 455.943 45.872L456.375 47.568ZM457.492 48V39.616H459.636V48H457.492ZM457.492 38.448V36.32H459.636V38.448H457.492ZM466.594 47.568C466.412 47.6427 466.194 47.728 465.938 47.824C465.682 47.92 465.404 47.9947 465.106 48.048C464.818 48.112 464.524 48.144 464.226 48.144C463.831 48.144 463.468 48.0747 463.138 47.936C462.807 47.7973 462.54 47.5787 462.338 47.28C462.146 46.9707 462.05 46.5707 462.05 46.08V41.264H460.946V39.616H462.05V36.896H464.194V39.616H465.954V41.264H464.194V45.36C464.204 45.648 464.284 45.856 464.434 45.984C464.583 46.112 464.77 46.176 464.994 46.176C465.218 46.176 465.436 46.1387 465.65 46.064C465.863 45.9893 466.034 45.9253 466.162 45.872L466.594 47.568ZM467.63 44.864V39.616H469.774V44.4C469.774 45.04 469.892 45.5253 470.126 45.856C470.361 46.176 470.708 46.336 471.166 46.336C471.444 46.336 471.716 46.2827 471.982 46.176C472.26 46.0587 472.51 45.888 472.734 45.664C472.969 45.44 473.166 45.1573 473.326 44.816V39.616H475.47V45.6C475.47 45.824 475.508 45.984 475.582 46.08C475.668 46.176 475.801 46.2347 475.982 46.256V48C475.769 48.032 475.588 48.0533 475.438 48.064C475.3 48.0853 475.172 48.096 475.054 48.096C474.67 48.096 474.356 48.0107 474.11 47.84C473.876 47.6587 473.737 47.4133 473.694 47.104L473.646 46.432C473.273 46.9973 472.793 47.4293 472.206 47.728C471.62 48.016 470.974 48.16 470.27 48.16C469.406 48.16 468.75 47.8827 468.302 47.328C467.854 46.7627 467.63 45.9413 467.63 44.864ZM482.594 47.568C482.412 47.6427 482.194 47.728 481.938 47.824C481.682 47.92 481.404 47.9947 481.106 48.048C480.818 48.112 480.524 48.144 480.226 48.144C479.831 48.144 479.468 48.0747 479.138 47.936C478.807 47.7973 478.54 47.5787 478.338 47.28C478.146 46.9707 478.05 46.5707 478.05 46.08V41.264H476.946V39.616H478.05V36.896H480.194V39.616H481.954V41.264H480.194V45.36C480.204 45.648 480.284 45.856 480.434 45.984C480.583 46.112 480.77 46.176 480.994 46.176C481.218 46.176 481.436 46.1387 481.65 46.064C481.863 45.9893 482.034 45.9253 482.162 45.872L482.594 47.568ZM487.489 48.16C486.806 48.16 486.193 48.048 485.649 47.824C485.105 47.5893 484.641 47.2693 484.257 46.864C483.883 46.4587 483.595 45.9947 483.393 45.472C483.19 44.9493 483.089 44.4 483.089 43.824C483.089 43.2373 483.19 42.6827 483.393 42.16C483.595 41.6373 483.883 41.1733 484.257 40.768C484.641 40.3627 485.105 40.048 485.649 39.824C486.193 39.5893 486.806 39.472 487.489 39.472C488.171 39.472 488.779 39.5893 489.313 39.824C489.857 40.048 490.321 40.3627 490.705 40.768C491.089 41.1733 491.377 41.6373 491.569 42.16C491.771 42.6827 491.873 43.2373 491.873 43.824C491.873 44.4 491.771 44.9493 491.569 45.472C491.377 45.9947 491.089 46.4587 490.705 46.864C490.331 47.2693 489.873 47.5893 489.329 47.824C488.785 48.048 488.171 48.16 487.489 48.16ZM485.297 43.824C485.297 44.3147 485.393 44.752 485.585 45.136C485.777 45.5093 486.038 45.8027 486.369 46.016C486.699 46.2293 487.073 46.336 487.489 46.336C487.894 46.336 488.262 46.2293 488.593 46.016C488.923 45.792 489.185 45.4933 489.377 45.12C489.579 44.736 489.681 44.2987 489.681 43.808C489.681 43.328 489.579 42.896 489.377 42.512C489.185 42.128 488.923 41.8293 488.593 41.616C488.262 41.4027 487.894 41.296 487.489 41.296C487.073 41.296 486.699 41.408 486.369 41.632C486.038 41.8453 485.777 42.144 485.585 42.528C485.393 42.9013 485.297 43.3333 485.297 43.824ZM505.399 38.576H501.767V48H499.575V38.576H495.943V36.64H505.399V38.576ZM508.911 48.16C508.239 48.16 507.631 48.048 507.087 47.824C506.543 47.5893 506.079 47.2747 505.695 46.88C505.311 46.4747 505.012 46.016 504.799 45.504C504.596 44.9813 504.495 44.432 504.495 43.856C504.495 43.056 504.671 42.3253 505.023 41.664C505.386 41.0027 505.898 40.4747 506.559 40.08C507.231 39.6747 508.02 39.472 508.927 39.472C509.844 39.472 510.628 39.6747 511.279 40.08C511.93 40.4747 512.426 41.0027 512.767 41.664C513.119 42.3147 513.295 43.0187 513.295 43.776C513.295 43.904 513.29 44.0373 513.279 44.176C513.268 44.304 513.258 44.4107 513.247 44.496H506.767C506.81 44.9227 506.932 45.296 507.135 45.616C507.348 45.936 507.615 46.1813 507.935 46.352C508.266 46.512 508.618 46.592 508.991 46.592C509.418 46.592 509.818 46.4907 510.191 46.288C510.575 46.0747 510.836 45.7973 510.975 45.456L512.815 45.968C512.612 46.3947 512.319 46.7733 511.935 47.104C511.562 47.4347 511.119 47.696 510.607 47.888C510.095 48.0693 509.53 48.16 508.911 48.16ZM506.719 43.136H511.103C511.06 42.7093 510.938 42.3413 510.735 42.032C510.543 41.712 510.287 41.4667 509.967 41.296C509.647 41.1147 509.29 41.024 508.895 41.024C508.511 41.024 508.159 41.1147 507.839 41.296C507.53 41.4667 507.274 41.712 507.071 42.032C506.879 42.3413 506.762 42.7093 506.719 43.136ZM509.599 38.64L508.223 38.224L509.087 36.32H511.087L509.599 38.64ZM518.505 48.16C517.822 48.16 517.209 48.048 516.665 47.824C516.121 47.5893 515.657 47.2693 515.273 46.864C514.889 46.448 514.59 45.9787 514.377 45.456C514.174 44.9333 514.073 44.384 514.073 43.808C514.073 43.0187 514.249 42.2987 514.601 41.648C514.964 40.9867 515.476 40.4587 516.137 40.064C516.798 39.6693 517.582 39.472 518.489 39.472C519.396 39.472 520.174 39.6693 520.825 40.064C521.476 40.4587 521.961 40.976 522.281 41.616L520.185 42.256C520.004 41.9467 519.764 41.712 519.465 41.552C519.166 41.3813 518.836 41.296 518.473 41.296C518.068 41.296 517.694 41.4027 517.353 41.616C517.022 41.8187 516.761 42.112 516.569 42.496C516.377 42.8693 516.281 43.3067 516.281 43.808C516.281 44.2987 516.377 44.736 516.569 45.12C516.772 45.4933 517.038 45.792 517.369 46.016C517.7 46.2293 518.068 46.336 518.473 46.336C518.729 46.336 518.969 46.2933 519.193 46.208C519.428 46.1227 519.636 46.0053 519.817 45.856C519.998 45.7067 520.132 45.536 520.217 45.344L522.313 45.984C522.121 46.4 521.838 46.7733 521.465 47.104C521.102 47.4347 520.67 47.696 520.169 47.888C519.678 48.0693 519.124 48.16 518.505 48.16ZM531.424 48H529.28V43.296C529.28 42.624 529.163 42.1333 528.928 41.824C528.694 41.5147 528.368 41.36 527.952 41.36C527.664 41.36 527.371 41.4347 527.072 41.584C526.784 41.7333 526.523 41.9413 526.288 42.208C526.054 42.464 525.883 42.7627 525.776 43.104V48H523.632V39.616H525.568V41.168C525.782 40.8053 526.054 40.5013 526.384 40.256C526.715 40 527.094 39.808 527.52 39.68C527.958 39.5413 528.416 39.472 528.896 39.472C529.419 39.472 529.846 39.568 530.176 39.76C530.518 39.9413 530.774 40.192 530.944 40.512C531.126 40.8213 531.248 41.1733 531.312 41.568C531.387 41.9627 531.424 42.3627 531.424 42.768V48ZM533.289 48V39.616H535.433V48H533.289ZM533.289 38.448V36.32H535.433V38.448H533.289ZM541.271 48.16C540.588 48.16 539.975 48.048 539.431 47.824C538.887 47.5893 538.423 47.2693 538.039 46.864C537.655 46.448 537.356 45.9787 537.143 45.456C536.94 44.9333 536.839 44.384 536.839 43.808C536.839 43.0187 537.015 42.2987 537.367 41.648C537.729 40.9867 538.241 40.4587 538.903 40.064C539.564 39.6693 540.348 39.472 541.255 39.472C542.161 39.472 542.94 39.6693 543.591 40.064C544.241 40.4587 544.727 40.976 545.047 41.616L542.951 42.256C542.769 41.9467 542.529 41.712 542.231 41.552C541.932 41.3813 541.601 41.296 541.239 41.296C540.833 41.296 540.46 41.4027 540.119 41.616C539.788 41.8187 539.527 42.112 539.335 42.496C539.143 42.8693 539.047 43.3067 539.047 43.808C539.047 44.2987 539.143 44.736 539.335 45.12C539.537 45.4933 539.804 45.792 540.135 46.016C540.465 46.2293 540.833 46.336 541.239 46.336C541.495 46.336 541.735 46.2933 541.959 46.208C542.193 46.1227 542.401 46.0053 542.583 45.856C542.764 45.7067 542.897 45.536 542.983 45.344L545.079 45.984C544.887 46.4 544.604 46.7733 544.231 47.104C543.868 47.4347 543.436 47.696 542.935 47.888C542.444 48.0693 541.889 48.16 541.271 48.16ZM550.192 48.16C549.509 48.16 548.896 48.048 548.352 47.824C547.808 47.5893 547.344 47.2693 546.96 46.864C546.586 46.4587 546.298 45.9947 546.096 45.472C545.893 44.9493 545.792 44.4 545.792 43.824C545.792 43.2373 545.893 42.6827 546.096 42.16C546.298 41.6373 546.586 41.1733 546.96 40.768C547.344 40.3627 547.808 40.048 548.352 39.824C548.896 39.5893 549.509 39.472 550.192 39.472C550.874 39.472 551.482 39.5893 552.016 39.824C552.56 40.048 553.024 40.3627 553.408 40.768C553.792 41.1733 554.08 41.6373 554.272 42.16C554.474 42.6827 554.576 43.2373 554.576 43.824C554.576 44.4 554.474 44.9493 554.272 45.472C554.08 45.9947 553.792 46.4587 553.408 46.864C553.034 47.2693 552.576 47.5893 552.032 47.824C551.488 48.048 550.874 48.16 550.192 48.16ZM548 43.824C548 44.3147 548.096 44.752 548.288 45.136C548.48 45.5093 548.741 45.8027 549.072 46.016C549.402 46.2293 549.776 46.336 550.192 46.336C550.597 46.336 550.965 46.2293 551.296 46.016C551.626 45.792 551.888 45.4933 552.08 45.12C552.282 44.736 552.384 44.2987 552.384 43.808C552.384 43.328 552.282 42.896 552.08 42.512C551.888 42.128 551.626 41.8293 551.296 41.616C550.965 41.4027 550.597 41.296 550.192 41.296C549.776 41.296 549.402 41.408 549.072 41.632C548.741 41.8453 548.48 42.144 548.288 42.528C548.096 42.9013 548 43.3333 548 43.824ZM566.843 39.616C566.768 39.5413 566.629 39.44 566.427 39.312C566.235 39.184 565.995 39.0613 565.707 38.944C565.429 38.8267 565.125 38.7253 564.795 38.64C564.464 38.544 564.128 38.496 563.787 38.496C563.189 38.496 562.736 38.608 562.427 38.832C562.128 39.056 561.979 39.3707 561.979 39.776C561.979 40.0853 562.075 40.3307 562.267 40.512C562.459 40.6933 562.747 40.848 563.131 40.976C563.515 41.104 563.995 41.2427 564.571 41.392C565.317 41.5733 565.963 41.7973 566.507 42.064C567.061 42.32 567.483 42.6613 567.771 43.088C568.069 43.504 568.219 44.0587 568.219 44.752C568.219 45.36 568.107 45.8827 567.883 46.32C567.659 46.7467 567.349 47.0933 566.955 47.36C566.56 47.6267 566.112 47.824 565.611 47.952C565.109 48.0693 564.576 48.128 564.011 48.128C563.445 48.128 562.88 48.0693 562.315 47.952C561.749 47.8347 561.205 47.6693 560.683 47.456C560.16 47.232 559.68 46.9653 559.243 46.656L560.219 44.752C560.315 44.848 560.485 44.976 560.731 45.136C560.976 45.2853 561.275 45.44 561.627 45.6C561.979 45.7493 562.363 45.8773 562.779 45.984C563.195 46.0907 563.616 46.144 564.043 46.144C564.64 46.144 565.093 46.0427 565.403 45.84C565.712 45.6373 565.867 45.3493 565.867 44.976C565.867 44.6347 565.744 44.368 565.499 44.176C565.253 43.984 564.912 43.8187 564.475 43.68C564.037 43.5307 563.52 43.3707 562.923 43.2C562.208 42.9973 561.611 42.7733 561.131 42.528C560.651 42.272 560.293 41.952 560.059 41.568C559.824 41.184 559.707 40.704 559.707 40.128C559.707 39.3493 559.888 38.6987 560.251 38.176C560.624 37.6427 561.125 37.2427 561.755 36.976C562.384 36.6987 563.083 36.56 563.851 36.56C564.384 36.56 564.885 36.6187 565.355 36.736C565.835 36.8533 566.283 37.008 566.699 37.2C567.115 37.392 567.488 37.6 567.819 37.824L566.843 39.616ZM569.552 44.864V39.616H571.696V44.4C571.696 45.04 571.814 45.5253 572.048 45.856C572.283 46.176 572.63 46.336 573.088 46.336C573.366 46.336 573.638 46.2827 573.904 46.176C574.182 46.0587 574.432 45.888 574.656 45.664C574.891 45.44 575.088 45.1573 575.248 44.816V39.616H577.392V45.6C577.392 45.824 577.43 45.984 577.504 46.08C577.59 46.176 577.723 46.2347 577.904 46.256V48C577.691 48.032 577.51 48.0533 577.36 48.064C577.222 48.0853 577.094 48.096 576.976 48.096C576.592 48.096 576.278 48.0107 576.032 47.84C575.798 47.6587 575.659 47.4133 575.616 47.104L575.568 46.432C575.195 46.9973 574.715 47.4293 574.128 47.728C573.542 48.016 572.896 48.16 572.192 48.16C571.328 48.16 570.672 47.8827 570.224 47.328C569.776 46.7627 569.552 45.9413 569.552 44.864ZM584.547 48.16C583.896 48.16 583.32 48.016 582.819 47.728C582.328 47.4293 581.944 47.0293 581.667 46.528V51.408H579.523V39.616H581.395V41.056C581.715 40.5653 582.12 40.1813 582.611 39.904C583.102 39.616 583.662 39.472 584.291 39.472C584.856 39.472 585.374 39.584 585.843 39.808C586.323 40.032 586.739 40.3467 587.091 40.752C587.443 41.1467 587.715 41.6053 587.907 42.128C588.11 42.64 588.211 43.1947 588.211 43.792C588.211 44.6027 588.051 45.3387 587.731 46C587.422 46.6613 586.99 47.1893 586.435 47.584C585.891 47.968 585.262 48.16 584.547 48.16ZM583.827 46.336C584.158 46.336 584.456 46.2667 584.723 46.128C584.99 45.9893 585.219 45.8027 585.411 45.568C585.614 45.3227 585.763 45.0507 585.859 44.752C585.966 44.4427 586.019 44.1227 586.019 43.792C586.019 43.44 585.96 43.1147 585.843 42.816C585.736 42.5173 585.576 42.256 585.363 42.032C585.15 41.7973 584.899 41.616 584.611 41.488C584.334 41.36 584.03 41.296 583.699 41.296C583.496 41.296 583.288 41.3333 583.075 41.408C582.872 41.472 582.675 41.568 582.483 41.696C582.291 41.824 582.12 41.9733 581.971 42.144C581.832 42.3147 581.731 42.5013 581.667 42.704V44.672C581.795 44.9813 581.966 45.264 582.179 45.52C582.403 45.776 582.659 45.9787 582.947 46.128C583.235 46.2667 583.528 46.336 583.827 46.336ZM593.552 48.16C592.88 48.16 592.272 48.048 591.728 47.824C591.184 47.5893 590.72 47.2747 590.336 46.88C589.952 46.4747 589.653 46.016 589.44 45.504C589.237 44.9813 589.136 44.432 589.136 43.856C589.136 43.056 589.312 42.3253 589.664 41.664C590.026 41.0027 590.538 40.4747 591.2 40.08C591.872 39.6747 592.661 39.472 593.568 39.472C594.485 39.472 595.269 39.6747 595.92 40.08C596.57 40.4747 597.066 41.0027 597.408 41.664C597.76 42.3147 597.936 43.0187 597.936 43.776C597.936 43.904 597.93 44.0373 597.92 44.176C597.909 44.304 597.898 44.4107 597.888 44.496H591.408C591.45 44.9227 591.573 45.296 591.776 45.616C591.989 45.936 592.256 46.1813 592.576 46.352C592.906 46.512 593.258 46.592 593.632 46.592C594.058 46.592 594.458 46.4907 594.832 46.288C595.216 46.0747 595.477 45.7973 595.616 45.456L597.456 45.968C597.253 46.3947 596.96 46.7733 596.576 47.104C596.202 47.4347 595.76 47.696 595.248 47.888C594.736 48.0693 594.17 48.16 593.552 48.16ZM591.36 43.136H595.744C595.701 42.7093 595.578 42.3413 595.376 42.032C595.184 41.712 594.928 41.4667 594.608 41.296C594.288 41.1147 593.93 41.024 593.536 41.024C593.152 41.024 592.8 41.1147 592.48 41.296C592.17 41.4667 591.914 41.712 591.712 42.032C591.52 42.3413 591.402 42.7093 591.36 43.136ZM604.234 41.472C603.583 41.472 603.002 41.6 602.49 41.856C601.978 42.1013 601.61 42.4587 601.386 42.928V48H599.242V39.616H601.21V41.408C601.508 40.832 601.887 40.3787 602.346 40.048C602.804 39.7173 603.29 39.536 603.802 39.504C603.919 39.504 604.01 39.504 604.074 39.504C604.138 39.504 604.191 39.5093 604.234 39.52V41.472ZM605.429 48V39.616H607.573V48H605.429ZM605.429 38.448V36.32H607.573V38.448H605.429ZM613.379 48.16C612.697 48.16 612.083 48.048 611.539 47.824C610.995 47.5893 610.531 47.2693 610.147 46.864C609.774 46.4587 609.486 45.9947 609.283 45.472C609.081 44.9493 608.979 44.4 608.979 43.824C608.979 43.2373 609.081 42.6827 609.283 42.16C609.486 41.6373 609.774 41.1733 610.147 40.768C610.531 40.3627 610.995 40.048 611.539 39.824C612.083 39.5893 612.697 39.472 613.379 39.472C614.062 39.472 614.67 39.5893 615.203 39.824C615.747 40.048 616.211 40.3627 616.595 40.768C616.979 41.1733 617.267 41.6373 617.459 42.16C617.662 42.6827 617.763 43.2373 617.763 43.824C617.763 44.4 617.662 44.9493 617.459 45.472C617.267 45.9947 616.979 46.4587 616.595 46.864C616.222 47.2693 615.763 47.5893 615.219 47.824C614.675 48.048 614.062 48.16 613.379 48.16ZM611.187 43.824C611.187 44.3147 611.283 44.752 611.475 45.136C611.667 45.5093 611.929 45.8027 612.259 46.016C612.59 46.2293 612.963 46.336 613.379 46.336C613.785 46.336 614.153 46.2293 614.483 46.016C614.814 45.792 615.075 45.4933 615.267 45.12C615.47 44.736 615.571 44.2987 615.571 43.808C615.571 43.328 615.47 42.896 615.267 42.512C615.075 42.128 614.814 41.8293 614.483 41.616C614.153 41.4027 613.785 41.296 613.379 41.296C612.963 41.296 612.59 41.408 612.259 41.632C611.929 41.8453 611.667 42.144 611.475 42.528C611.283 42.9013 611.187 43.3333 611.187 43.824ZM624.202 41.472C623.552 41.472 622.97 41.6 622.458 41.856C621.946 42.1013 621.578 42.4587 621.354 42.928V48H619.21V39.616H621.178V41.408C621.477 40.832 621.856 40.3787 622.314 40.048C622.773 39.7173 623.258 39.536 623.77 39.504C623.888 39.504 623.978 39.504 624.042 39.504C624.106 39.504 624.16 39.5093 624.202 39.52V41.472ZM628.402 42.24C628.402 41.5467 628.525 40.8693 628.77 40.208C629.026 39.536 629.394 38.928 629.874 38.384C630.354 37.8293 630.941 37.392 631.634 37.072C632.328 36.7413 633.117 36.576 634.002 36.576C635.048 36.576 635.949 36.8053 636.706 37.264C637.474 37.7227 638.045 38.32 638.418 39.056L636.722 40.224C636.53 39.7973 636.28 39.4613 635.97 39.216C635.661 38.96 635.33 38.784 634.978 38.688C634.626 38.5813 634.28 38.528 633.938 38.528C633.384 38.528 632.898 38.64 632.482 38.864C632.077 39.088 631.736 39.3813 631.458 39.744C631.181 40.1067 630.973 40.512 630.834 40.96C630.706 41.408 630.642 41.856 630.642 42.304C630.642 42.8053 630.722 43.2907 630.882 43.76C631.042 44.2187 631.266 44.6293 631.554 44.992C631.853 45.344 632.205 45.6267 632.61 45.84C633.026 46.0427 633.48 46.144 633.97 46.144C634.322 46.144 634.68 46.0853 635.042 45.968C635.405 45.8507 635.741 45.664 636.05 45.408C636.36 45.152 636.6 44.8213 636.77 44.416L638.578 45.456C638.354 46.0213 637.986 46.5013 637.474 46.896C636.973 47.2907 636.408 47.5893 635.778 47.792C635.149 47.9947 634.525 48.096 633.906 48.096C633.096 48.096 632.354 47.9307 631.682 47.6C631.01 47.2587 630.429 46.8107 629.938 46.256C629.458 45.6907 629.08 45.0613 628.802 44.368C628.536 43.664 628.402 42.9547 628.402 42.24ZM643.692 48.16C643.009 48.16 642.396 48.048 641.852 47.824C641.308 47.5893 640.844 47.2693 640.46 46.864C640.086 46.4587 639.798 45.9947 639.596 45.472C639.393 44.9493 639.292 44.4 639.292 43.824C639.292 43.2373 639.393 42.6827 639.596 42.16C639.798 41.6373 640.086 41.1733 640.46 40.768C640.844 40.3627 641.308 40.048 641.852 39.824C642.396 39.5893 643.009 39.472 643.692 39.472C644.374 39.472 644.982 39.5893 645.516 39.824C646.06 40.048 646.524 40.3627 646.908 40.768C647.292 41.1733 647.58 41.6373 647.772 42.16C647.974 42.6827 648.076 43.2373 648.076 43.824C648.076 44.4 647.974 44.9493 647.772 45.472C647.58 45.9947 647.292 46.4587 646.908 46.864C646.534 47.2693 646.076 47.5893 645.532 47.824C644.988 48.048 644.374 48.16 643.692 48.16ZM641.5 43.824C641.5 44.3147 641.596 44.752 641.788 45.136C641.98 45.5093 642.241 45.8027 642.572 46.016C642.902 46.2293 643.276 46.336 643.692 46.336C644.097 46.336 644.465 46.2293 644.796 46.016C645.126 45.792 645.388 45.4933 645.58 45.12C645.782 44.736 645.884 44.2987 645.884 43.808C645.884 43.328 645.782 42.896 645.58 42.512C645.388 42.128 645.126 41.8293 644.796 41.616C644.465 41.4027 644.097 41.296 643.692 41.296C643.276 41.296 642.902 41.408 642.572 41.632C642.241 41.8453 641.98 42.144 641.788 42.528C641.596 42.9013 641.5 43.3333 641.5 43.824ZM644.396 38.64L643.02 38.224L643.884 36.32H645.884L644.396 38.64ZM654.515 41.472C653.864 41.472 653.283 41.6 652.771 41.856C652.259 42.1013 651.891 42.4587 651.667 42.928V48H649.523V39.616H651.491V41.408C651.79 40.832 652.168 40.3787 652.627 40.048C653.086 39.7173 653.571 39.536 654.083 39.504C654.2 39.504 654.291 39.504 654.355 39.504C654.419 39.504 654.472 39.5093 654.515 39.52V41.472ZM655.12 43.808C655.12 42.9973 655.28 42.2667 655.6 41.616C655.92 40.9547 656.363 40.432 656.928 40.048C657.494 39.664 658.139 39.472 658.864 39.472C659.483 39.472 660.038 39.6267 660.528 39.936C661.03 40.2347 661.419 40.6187 661.696 41.088V36.32H663.84V45.6C663.84 45.824 663.878 45.984 663.952 46.08C664.027 46.176 664.155 46.2347 664.336 46.256V48C663.963 48.0747 663.659 48.112 663.424 48.112C663.04 48.112 662.72 48.016 662.464 47.824C662.219 47.632 662.08 47.3813 662.048 47.072L662.016 46.544C661.707 47.0667 661.286 47.4667 660.752 47.744C660.23 48.0213 659.68 48.16 659.104 48.16C658.528 48.16 657.995 48.048 657.504 47.824C657.024 47.6 656.603 47.2907 656.24 46.896C655.888 46.5013 655.611 46.0427 655.408 45.52C655.216 44.9867 655.12 44.416 655.12 43.808ZM661.696 44.928V42.928C661.59 42.6187 661.419 42.3413 661.184 42.096C660.95 41.8507 660.688 41.6587 660.4 41.52C660.112 41.3707 659.824 41.296 659.536 41.296C659.206 41.296 658.907 41.3653 658.64 41.504C658.374 41.6427 658.139 41.8293 657.936 42.064C657.744 42.2987 657.595 42.5707 657.488 42.88C657.392 43.1893 657.344 43.5147 657.344 43.856C657.344 44.1973 657.398 44.5227 657.504 44.832C657.622 45.1307 657.787 45.392 658 45.616C658.214 45.84 658.459 46.016 658.736 46.144C659.024 46.272 659.334 46.336 659.664 46.336C659.867 46.336 660.07 46.304 660.272 46.24C660.486 46.1653 660.683 46.0693 660.864 45.952C661.056 45.824 661.222 45.6747 661.36 45.504C661.51 45.3227 661.622 45.1307 661.696 44.928ZM669.817 48.16C669.134 48.16 668.521 48.048 667.977 47.824C667.433 47.5893 666.969 47.2693 666.585 46.864C666.211 46.4587 665.923 45.9947 665.721 45.472C665.518 44.9493 665.417 44.4 665.417 43.824C665.417 43.2373 665.518 42.6827 665.721 42.16C665.923 41.6373 666.211 41.1733 666.585 40.768C666.969 40.3627 667.433 40.048 667.977 39.824C668.521 39.5893 669.134 39.472 669.817 39.472C670.499 39.472 671.107 39.5893 671.641 39.824C672.185 40.048 672.649 40.3627 673.033 40.768C673.417 41.1733 673.705 41.6373 673.897 42.16C674.099 42.6827 674.201 43.2373 674.201 43.824C674.201 44.4 674.099 44.9493 673.897 45.472C673.705 45.9947 673.417 46.4587 673.033 46.864C672.659 47.2693 672.201 47.5893 671.657 47.824C671.113 48.048 670.499 48.16 669.817 48.16ZM667.625 43.824C667.625 44.3147 667.721 44.752 667.913 45.136C668.105 45.5093 668.366 45.8027 668.697 46.016C669.027 46.2293 669.401 46.336 669.817 46.336C670.222 46.336 670.59 46.2293 670.921 46.016C671.251 45.792 671.513 45.4933 671.705 45.12C671.907 44.736 672.009 44.2987 672.009 43.808C672.009 43.328 671.907 42.896 671.705 42.512C671.513 42.128 671.251 41.8293 670.921 41.616C670.59 41.4027 670.222 41.296 669.817 41.296C669.401 41.296 669.027 41.408 668.697 41.632C668.366 41.8453 668.105 42.144 667.913 42.528C667.721 42.9013 667.625 43.3333 667.625 43.824ZM680.416 48.16C679.776 48.16 679.205 48.016 678.704 47.728C678.203 47.44 677.808 47.0453 677.52 46.544V48H675.648V36.32H677.792V41.088C678.091 40.5867 678.48 40.192 678.96 39.904C679.451 39.616 680.021 39.472 680.672 39.472C681.216 39.472 681.712 39.5893 682.16 39.824C682.608 40.048 682.992 40.3627 683.312 40.768C683.643 41.1733 683.893 41.6373 684.064 42.16C684.245 42.6827 684.336 43.2427 684.336 43.84C684.336 44.4373 684.235 44.9973 684.032 45.52C683.84 46.0427 683.568 46.5067 683.216 46.912C682.864 47.3067 682.448 47.616 681.968 47.84C681.499 48.0533 680.981 48.16 680.416 48.16ZM679.824 46.336C680.165 46.336 680.475 46.272 680.752 46.144C681.04 46.0053 681.285 45.824 681.488 45.6C681.701 45.376 681.861 45.1147 681.968 44.816C682.085 44.5067 682.144 44.1867 682.144 43.856C682.144 43.3973 682.048 42.976 681.856 42.592C681.675 42.1973 681.419 41.8827 681.088 41.648C680.768 41.4133 680.389 41.296 679.952 41.296C679.643 41.296 679.344 41.3707 679.056 41.52C678.779 41.6587 678.528 41.8507 678.304 42.096C678.091 42.3413 677.92 42.6187 677.792 42.928V44.928C677.856 45.1413 677.957 45.3333 678.096 45.504C678.245 45.6747 678.416 45.824 678.608 45.952C678.8 46.0693 678.997 46.1653 679.2 46.24C679.413 46.304 679.621 46.336 679.824 46.336ZM685.213 45.52C685.213 44.976 685.362 44.5013 685.661 44.096C685.97 43.68 686.397 43.36 686.941 43.136C687.485 42.912 688.109 42.8 688.812 42.8C689.165 42.8 689.522 42.8267 689.885 42.88C690.247 42.9333 690.562 43.0187 690.829 43.136V42.688C690.829 42.1547 690.669 41.744 690.349 41.456C690.039 41.168 689.575 41.024 688.957 41.024C688.498 41.024 688.061 41.104 687.645 41.264C687.229 41.424 686.791 41.6587 686.333 41.968L685.645 40.56C686.199 40.1973 686.765 39.9253 687.341 39.744C687.927 39.5627 688.541 39.472 689.181 39.472C690.375 39.472 691.303 39.7707 691.965 40.368C692.637 40.9653 692.973 41.8187 692.973 42.928V45.6C692.973 45.824 693.01 45.984 693.085 46.08C693.17 46.176 693.303 46.2347 693.485 46.256V48C693.293 48.032 693.117 48.0587 692.957 48.08C692.807 48.1013 692.679 48.112 692.573 48.112C692.146 48.112 691.821 48.016 691.597 47.824C691.383 47.632 691.25 47.3973 691.197 47.12L691.149 46.688C690.786 47.1573 690.333 47.52 689.789 47.776C689.245 48.032 688.69 48.16 688.125 48.16C687.57 48.16 687.069 48.048 686.621 47.824C686.183 47.5893 685.837 47.2747 685.581 46.88C685.335 46.4747 685.213 46.0213 685.213 45.52ZM690.429 45.952C690.546 45.824 690.642 45.696 690.717 45.568C690.791 45.44 690.829 45.3227 690.829 45.216V44.368C690.573 44.2613 690.295 44.1813 689.997 44.128C689.698 44.064 689.415 44.032 689.149 44.032C688.594 44.032 688.135 44.1547 687.773 44.4C687.421 44.6347 687.245 44.9493 687.245 45.344C687.245 45.5573 687.303 45.76 687.421 45.952C687.538 46.144 687.709 46.2987 687.933 46.416C688.157 46.5333 688.423 46.592 688.733 46.592C689.053 46.592 689.367 46.5333 689.677 46.416C689.986 46.288 690.237 46.1333 690.429 45.952ZM522.343 58.616C522.268 58.5413 522.129 58.44 521.927 58.312C521.735 58.184 521.495 58.0613 521.207 57.944C520.929 57.8267 520.625 57.7253 520.295 57.64C519.964 57.544 519.628 57.496 519.287 57.496C518.689 57.496 518.236 57.608 517.927 57.832C517.628 58.056 517.479 58.3707 517.479 58.776C517.479 59.0853 517.575 59.3307 517.767 59.512C517.959 59.6933 518.247 59.848 518.631 59.976C519.015 60.104 519.495 60.2427 520.071 60.392C520.817 60.5733 521.463 60.7973 522.007 61.064C522.561 61.32 522.983 61.6613 523.271 62.088C523.569 62.504 523.719 63.0587 523.719 63.752C523.719 64.36 523.607 64.8827 523.383 65.32C523.159 65.7467 522.849 66.0933 522.455 66.36C522.06 66.6267 521.612 66.824 521.111 66.952C520.609 67.0693 520.076 67.128 519.511 67.128C518.945 67.128 518.38 67.0693 517.815 66.952C517.249 66.8347 516.705 66.6693 516.183 66.456C515.66 66.232 515.18 65.9653 514.743 65.656L515.719 63.752C515.815 63.848 515.985 63.976 516.231 64.136C516.476 64.2853 516.775 64.44 517.127 64.6C517.479 64.7493 517.863 64.8773 518.279 64.984C518.695 65.0907 519.116 65.144 519.543 65.144C520.14 65.144 520.593 65.0427 520.903 64.84C521.212 64.6373 521.367 64.3493 521.367 63.976C521.367 63.6347 521.244 63.368 520.999 63.176C520.753 62.984 520.412 62.8187 519.975 62.68C519.537 62.5307 519.02 62.3707 518.423 62.2C517.708 61.9973 517.111 61.7733 516.631 61.528C516.151 61.272 515.793 60.952 515.559 60.568C515.324 60.184 515.207 59.704 515.207 59.128C515.207 58.3493 515.388 57.6987 515.751 57.176C516.124 56.6427 516.625 56.2427 517.255 55.976C517.884 55.6987 518.583 55.56 519.351 55.56C519.884 55.56 520.385 55.6187 520.855 55.736C521.335 55.8533 521.783 56.008 522.199 56.2C522.615 56.392 522.988 56.6 523.319 56.824L522.343 58.616ZM529.067 67.16C528.395 67.16 527.787 67.048 527.243 66.824C526.699 66.5893 526.235 66.2747 525.851 65.88C525.467 65.4747 525.168 65.016 524.955 64.504C524.752 63.9813 524.651 63.432 524.651 62.856C524.651 62.056 524.827 61.3253 525.179 60.664C525.542 60.0027 526.054 59.4747 526.715 59.08C527.387 58.6747 528.176 58.472 529.083 58.472C530 58.472 530.784 58.6747 531.435 59.08C532.086 59.4747 532.582 60.0027 532.923 60.664C533.275 61.3147 533.451 62.0187 533.451 62.776C533.451 62.904 533.446 63.0373 533.435 63.176C533.424 63.304 533.414 63.4107 533.403 63.496H526.923C526.966 63.9227 527.088 64.296 527.291 64.616C527.504 64.936 527.771 65.1813 528.091 65.352C528.422 65.512 528.774 65.592 529.147 65.592C529.574 65.592 529.974 65.4907 530.347 65.288C530.731 65.0747 530.992 64.7973 531.131 64.456L532.971 64.968C532.768 65.3947 532.475 65.7733 532.091 66.104C531.718 66.4347 531.275 66.696 530.763 66.888C530.251 67.0693 529.686 67.16 529.067 67.16ZM526.875 62.136H531.259C531.216 61.7093 531.094 61.3413 530.891 61.032C530.699 60.712 530.443 60.4667 530.123 60.296C529.803 60.1147 529.446 60.024 529.051 60.024C528.667 60.024 528.315 60.1147 527.995 60.296C527.686 60.4667 527.43 60.712 527.227 61.032C527.035 61.3413 526.918 61.7093 526.875 62.136ZM534.245 62.808C534.245 61.9973 534.405 61.2667 534.725 60.616C535.045 59.9547 535.488 59.432 536.053 59.048C536.619 58.664 537.264 58.472 537.989 58.472C538.608 58.472 539.163 58.6267 539.653 58.936C540.155 59.2347 540.544 59.6187 540.821 60.088V55.32H542.965V64.6C542.965 64.824 543.003 64.984 543.077 65.08C543.152 65.176 543.28 65.2347 543.461 65.256V67C543.088 67.0747 542.784 67.112 542.549 67.112C542.165 67.112 541.845 67.016 541.589 66.824C541.344 66.632 541.205 66.3813 541.173 66.072L541.141 65.544C540.832 66.0667 540.411 66.4667 539.877 66.744C539.355 67.0213 538.805 67.16 538.229 67.16C537.653 67.16 537.12 67.048 536.629 66.824C536.149 66.6 535.728 66.2907 535.365 65.896C535.013 65.5013 534.736 65.0427 534.533 64.52C534.341 63.9867 534.245 63.416 534.245 62.808ZM540.821 63.928V61.928C540.715 61.6187 540.544 61.3413 540.309 61.096C540.075 60.8507 539.813 60.6587 539.525 60.52C539.237 60.3707 538.949 60.296 538.661 60.296C538.331 60.296 538.032 60.3653 537.765 60.504C537.499 60.6427 537.264 60.8293 537.061 61.064C536.869 61.2987 536.72 61.5707 536.613 61.88C536.517 62.1893 536.469 62.5147 536.469 62.856C536.469 63.1973 536.523 63.5227 536.629 63.832C536.747 64.1307 536.912 64.392 537.125 64.616C537.339 64.84 537.584 65.016 537.861 65.144C538.149 65.272 538.459 65.336 538.789 65.336C538.992 65.336 539.195 65.304 539.397 65.24C539.611 65.1653 539.808 65.0693 539.989 64.952C540.181 64.824 540.347 64.6747 540.485 64.504C540.635 64.3227 540.747 64.1307 540.821 63.928ZM548.958 67.16C548.286 67.16 547.678 67.048 547.134 66.824C546.59 66.5893 546.126 66.2747 545.742 65.88C545.358 65.4747 545.059 65.016 544.846 64.504C544.643 63.9813 544.542 63.432 544.542 62.856C544.542 62.056 544.718 61.3253 545.07 60.664C545.432 60.0027 545.944 59.4747 546.606 59.08C547.278 58.6747 548.067 58.472 548.974 58.472C549.891 58.472 550.675 58.6747 551.326 59.08C551.976 59.4747 552.472 60.0027 552.814 60.664C553.166 61.3147 553.342 62.0187 553.342 62.776C553.342 62.904 553.336 63.0373 553.326 63.176C553.315 63.304 553.304 63.4107 553.294 63.496H546.814C546.856 63.9227 546.979 64.296 547.182 64.616C547.395 64.936 547.662 65.1813 547.982 65.352C548.312 65.512 548.664 65.592 549.038 65.592C549.464 65.592 549.864 65.4907 550.238 65.288C550.622 65.0747 550.883 64.7973 551.022 64.456L552.862 64.968C552.659 65.3947 552.366 65.7733 551.982 66.104C551.608 66.4347 551.166 66.696 550.654 66.888C550.142 67.0693 549.576 67.16 548.958 67.16ZM546.766 62.136H551.15C551.107 61.7093 550.984 61.3413 550.782 61.032C550.59 60.712 550.334 60.4667 550.014 60.296C549.694 60.1147 549.336 60.024 548.942 60.024C548.558 60.024 548.206 60.1147 547.886 60.296C547.576 60.4667 547.32 60.712 547.118 61.032C546.926 61.3413 546.808 61.7093 546.766 62.136ZM559.321 55.64L562.393 64.376L565.433 55.64H567.753L563.449 67H561.321L557.001 55.64H559.321ZM568.757 67V58.616H570.901V67H568.757ZM568.757 57.448V55.32H570.901V57.448H568.757ZM572.819 55.32H574.963V64.312C574.963 64.696 575.027 64.9573 575.155 65.096C575.283 65.224 575.459 65.288 575.683 65.288C575.854 65.288 576.03 65.2667 576.211 65.224C576.393 65.1813 576.553 65.128 576.691 65.064L576.979 66.696C576.691 66.8347 576.355 66.9413 575.971 67.016C575.587 67.0907 575.241 67.128 574.931 67.128C574.259 67.128 573.737 66.952 573.363 66.6C573.001 66.2373 572.819 65.7253 572.819 65.064V55.32ZM577.898 55.32H580.042V64.312C580.042 64.696 580.106 64.9573 580.234 65.096C580.362 65.224 580.538 65.288 580.762 65.288C580.932 65.288 581.108 65.2667 581.29 65.224C581.471 65.1813 581.631 65.128 581.77 65.064L582.058 66.696C581.77 66.8347 581.434 66.9413 581.049 67.016C580.666 67.0907 580.319 67.128 580.01 67.128C579.338 67.128 578.815 66.952 578.442 66.6C578.079 66.2373 577.898 65.7253 577.898 65.064V55.32ZM582.416 64.52C582.416 63.976 582.565 63.5013 582.864 63.096C583.173 62.68 583.6 62.36 584.144 62.136C584.688 61.912 585.312 61.8 586.016 61.8C586.368 61.8 586.725 61.8267 587.088 61.88C587.45 61.9333 587.765 62.0187 588.032 62.136V61.688C588.032 61.1547 587.872 60.744 587.552 60.456C587.242 60.168 586.778 60.024 586.16 60.024C585.701 60.024 585.264 60.104 584.848 60.264C584.432 60.424 583.994 60.6587 583.536 60.968L582.848 59.56C583.402 59.1973 583.968 58.9253 584.544 58.744C585.13 58.5627 585.744 58.472 586.384 58.472C587.578 58.472 588.506 58.7707 589.168 59.368C589.84 59.9653 590.176 60.8187 590.176 61.928V64.6C590.176 64.824 590.213 64.984 590.288 65.08C590.373 65.176 590.506 65.2347 590.688 65.256V67C590.496 67.032 590.32 67.0587 590.16 67.08C590.01 67.1013 589.882 67.112 589.776 67.112C589.349 67.112 589.024 67.016 588.8 66.824C588.586 66.632 588.453 66.3973 588.4 66.12L588.352 65.688C587.989 66.1573 587.536 66.52 586.992 66.776C586.448 67.032 585.893 67.16 585.328 67.16C584.773 67.16 584.272 67.048 583.824 66.824C583.386 66.5893 583.04 66.2747 582.784 65.88C582.538 65.4747 582.416 65.0213 582.416 64.52ZM587.632 64.952C587.749 64.824 587.845 64.696 587.92 64.568C587.994 64.44 588.032 64.3227 588.032 64.216V63.368C587.776 63.2613 587.498 63.1813 587.2 63.128C586.901 63.064 586.618 63.032 586.352 63.032C585.797 63.032 585.338 63.1547 584.976 63.4C584.624 63.6347 584.448 63.9493 584.448 64.344C584.448 64.5573 584.506 64.76 584.624 64.952C584.741 65.144 584.912 65.2987 585.136 65.416C585.36 65.5333 585.626 65.592 585.936 65.592C586.256 65.592 586.57 65.5333 586.88 65.416C587.189 65.288 587.44 65.1333 587.632 64.952ZM604.119 65.064V67H596.231V55.64H603.975V57.576H598.439V60.312H603.223V62.104H598.439V65.064H604.119ZM605.616 55.32H607.76V64.312C607.76 64.696 607.824 64.9573 607.952 65.096C608.08 65.224 608.256 65.288 608.48 65.288C608.651 65.288 608.827 65.2667 609.008 65.224C609.19 65.1813 609.35 65.128 609.488 65.064L609.776 66.696C609.488 66.8347 609.152 66.9413 608.768 67.016C608.384 67.0907 608.038 67.128 607.728 67.128C607.056 67.128 606.534 66.952 606.16 66.6C605.798 66.2373 605.616 65.7253 605.616 65.064V55.32ZM614.325 67V55.64H616.533V65.064H622.325V67H614.325ZM623.46 67V58.616H625.604V67H623.46ZM623.46 57.448V55.32H625.604V57.448H623.46ZM632.307 67.16C631.667 67.16 631.096 67.016 630.595 66.728C630.093 66.44 629.699 66.0453 629.411 65.544V67H627.539V55.32H629.683V60.088C629.981 59.5867 630.371 59.192 630.851 58.904C631.341 58.616 631.912 58.472 632.563 58.472C633.107 58.472 633.603 58.5893 634.051 58.824C634.499 59.048 634.883 59.3627 635.203 59.768C635.533 60.1733 635.784 60.6373 635.955 61.16C636.136 61.6827 636.227 62.2427 636.227 62.84C636.227 63.4373 636.125 63.9973 635.923 64.52C635.731 65.0427 635.459 65.5067 635.107 65.912C634.755 66.3067 634.339 66.616 633.859 66.84C633.389 67.0533 632.872 67.16 632.307 67.16ZM631.715 65.336C632.056 65.336 632.365 65.272 632.643 65.144C632.931 65.0053 633.176 64.824 633.379 64.6C633.592 64.376 633.752 64.1147 633.859 63.816C633.976 63.5067 634.035 63.1867 634.035 62.856C634.035 62.3973 633.939 61.976 633.747 61.592C633.565 61.1973 633.309 60.8827 632.979 60.648C632.659 60.4133 632.28 60.296 631.843 60.296C631.533 60.296 631.235 60.3707 630.947 60.52C630.669 60.6587 630.419 60.8507 630.195 61.096C629.981 61.3413 629.811 61.6187 629.683 61.928V63.928C629.747 64.1413 629.848 64.3333 629.987 64.504C630.136 64.6747 630.307 64.824 630.499 64.952C630.691 65.0693 630.888 65.1653 631.091 65.24C631.304 65.304 631.512 65.336 631.715 65.336ZM641.567 67.16C640.895 67.16 640.287 67.048 639.743 66.824C639.199 66.5893 638.735 66.2747 638.351 65.88C637.967 65.4747 637.668 65.016 637.455 64.504C637.252 63.9813 637.151 63.432 637.151 62.856C637.151 62.056 637.327 61.3253 637.679 60.664C638.042 60.0027 638.554 59.4747 639.215 59.08C639.887 58.6747 640.676 58.472 641.583 58.472C642.5 58.472 643.284 58.6747 643.935 59.08C644.586 59.4747 645.082 60.0027 645.423 60.664C645.775 61.3147 645.951 62.0187 645.951 62.776C645.951 62.904 645.946 63.0373 645.935 63.176C645.924 63.304 645.914 63.4107 645.903 63.496H639.423C639.466 63.9227 639.588 64.296 639.791 64.616C640.004 64.936 640.271 65.1813 640.591 65.352C640.922 65.512 641.274 65.592 641.647 65.592C642.074 65.592 642.474 65.4907 642.847 65.288C643.231 65.0747 643.492 64.7973 643.631 64.456L645.471 64.968C645.268 65.3947 644.975 65.7733 644.591 66.104C644.218 66.4347 643.775 66.696 643.263 66.888C642.751 67.0693 642.186 67.16 641.567 67.16ZM639.375 62.136H643.759C643.716 61.7093 643.594 61.3413 643.391 61.032C643.199 60.712 642.943 60.4667 642.623 60.296C642.303 60.1147 641.946 60.024 641.551 60.024C641.167 60.024 640.815 60.1147 640.495 60.296C640.186 60.4667 639.93 60.712 639.727 61.032C639.535 61.3413 639.418 61.7093 639.375 62.136ZM652.249 60.472C651.599 60.472 651.017 60.6 650.505 60.856C649.993 61.1013 649.625 61.4587 649.401 61.928V67H647.257V58.616H649.225V60.408C649.524 59.832 649.903 59.3787 650.361 59.048C650.82 58.7173 651.305 58.536 651.817 58.504C651.935 58.504 652.025 58.504 652.089 58.504C652.153 58.504 652.207 58.5093 652.249 58.52V60.472ZM658.469 66.568C658.287 66.6427 658.069 66.728 657.813 66.824C657.557 66.92 657.279 66.9947 656.981 67.048C656.693 67.112 656.399 67.144 656.101 67.144C655.706 67.144 655.343 67.0747 655.013 66.936C654.682 66.7973 654.415 66.5787 654.213 66.28C654.021 65.9707 653.925 65.5707 653.925 65.08V60.264H652.821V58.616H653.925V55.896H656.069V58.616H657.829V60.264H656.069V64.36C656.079 64.648 656.159 64.856 656.309 64.984C656.458 65.112 656.645 65.176 656.869 65.176C657.093 65.176 657.311 65.1387 657.525 65.064C657.738 64.9893 657.909 64.9253 658.037 64.872L658.469 66.568ZM659.009 64.52C659.009 63.976 659.159 63.5013 659.457 63.096C659.767 62.68 660.193 62.36 660.737 62.136C661.281 61.912 661.905 61.8 662.609 61.8C662.961 61.8 663.319 61.8267 663.681 61.88C664.044 61.9333 664.359 62.0187 664.625 62.136V61.688C664.625 61.1547 664.465 60.744 664.145 60.456C663.836 60.168 663.372 60.024 662.753 60.024C662.295 60.024 661.857 60.104 661.441 60.264C661.025 60.424 660.588 60.6587 660.129 60.968L659.441 59.56C659.996 59.1973 660.561 58.9253 661.137 58.744C661.724 58.5627 662.337 58.472 662.977 58.472C664.172 58.472 665.1 58.7707 665.761 59.368C666.433 59.9653 666.769 60.8187 666.769 61.928V64.6C666.769 64.824 666.807 64.984 666.881 65.08C666.967 65.176 667.1 65.2347 667.281 65.256V67C667.089 67.032 666.913 67.0587 666.753 67.08C666.604 67.1013 666.476 67.112 666.369 67.112C665.943 67.112 665.617 67.016 665.393 66.824C665.18 66.632 665.047 66.3973 664.993 66.12L664.945 65.688C664.583 66.1573 664.129 66.52 663.585 66.776C663.041 67.032 662.487 67.16 661.921 67.16C661.367 67.16 660.865 67.048 660.417 66.824C659.98 66.5893 659.633 66.2747 659.377 65.88C659.132 65.4747 659.009 65.0213 659.009 64.52ZM664.225 64.952C664.343 64.824 664.439 64.696 664.513 64.568C664.588 64.44 664.625 64.3227 664.625 64.216V63.368C664.369 63.2613 664.092 63.1813 663.793 63.128C663.495 63.064 663.212 63.032 662.945 63.032C662.391 63.032 661.932 63.1547 661.569 63.4C661.217 63.6347 661.041 63.9493 661.041 64.344C661.041 64.5573 661.1 64.76 661.217 64.952C661.335 65.144 661.505 65.2987 661.729 65.416C661.953 65.5333 662.22 65.592 662.529 65.592C662.849 65.592 663.164 65.5333 663.473 65.416C663.783 65.288 664.033 65.1333 664.225 64.952ZM668.261 62.808C668.261 61.9973 668.421 61.2667 668.741 60.616C669.061 59.9547 669.504 59.432 670.069 59.048C670.634 58.664 671.28 58.472 672.005 58.472C672.624 58.472 673.178 58.6267 673.669 58.936C674.17 59.2347 674.56 59.6187 674.837 60.088V55.32H676.981V64.6C676.981 64.824 677.018 64.984 677.093 65.08C677.168 65.176 677.296 65.2347 677.477 65.256V67C677.104 67.0747 676.8 67.112 676.565 67.112C676.181 67.112 675.861 67.016 675.605 66.824C675.36 66.632 675.221 66.3813 675.189 66.072L675.157 65.544C674.848 66.0667 674.426 66.4667 673.893 66.744C673.37 67.0213 672.821 67.16 672.245 67.16C671.669 67.16 671.136 67.048 670.645 66.824C670.165 66.6 669.744 66.2907 669.381 65.896C669.029 65.5013 668.752 65.0427 668.549 64.52C668.357 63.9867 668.261 63.416 668.261 62.808ZM674.837 63.928V61.928C674.73 61.6187 674.56 61.3413 674.325 61.096C674.09 60.8507 673.829 60.6587 673.541 60.52C673.253 60.3707 672.965 60.296 672.677 60.296C672.346 60.296 672.048 60.3653 671.781 60.504C671.514 60.6427 671.28 60.8293 671.077 61.064C670.885 61.2987 670.736 61.5707 670.629 61.88C670.533 62.1893 670.485 62.5147 670.485 62.856C670.485 63.1973 670.538 63.5227 670.645 63.832C670.762 64.1307 670.928 64.392 671.141 64.616C671.354 64.84 671.6 65.016 671.877 65.144C672.165 65.272 672.474 65.336 672.805 65.336C673.008 65.336 673.21 65.304 673.413 65.24C673.626 65.1653 673.824 65.0693 674.005 64.952C674.197 64.824 674.362 64.6747 674.501 64.504C674.65 64.3227 674.762 64.1307 674.837 63.928ZM682.957 67.16C682.275 67.16 681.661 67.048 681.117 66.824C680.573 66.5893 680.109 66.2693 679.725 65.864C679.352 65.4587 679.064 64.9947 678.861 64.472C678.659 63.9493 678.557 63.4 678.557 62.824C678.557 62.2373 678.659 61.6827 678.861 61.16C679.064 60.6373 679.352 60.1733 679.725 59.768C680.109 59.3627 680.573 59.048 681.117 58.824C681.661 58.5893 682.275 58.472 682.957 58.472C683.64 58.472 684.248 58.5893 684.781 58.824C685.325 59.048 685.789 59.3627 686.173 59.768C686.557 60.1733 686.845 60.6373 687.037 61.16C687.24 61.6827 687.341 62.2373 687.341 62.824C687.341 63.4 687.24 63.9493 687.037 64.472C686.845 64.9947 686.557 65.4587 686.173 65.864C685.8 66.2693 685.341 66.5893 684.797 66.824C684.253 67.048 683.64 67.16 682.957 67.16ZM680.765 62.824C680.765 63.3147 680.861 63.752 681.053 64.136C681.245 64.5093 681.507 64.8027 681.837 65.016C682.168 65.2293 682.541 65.336 682.957 65.336C683.363 65.336 683.731 65.2293 684.061 65.016C684.392 64.792 684.653 64.4933 684.845 64.12C685.048 63.736 685.149 63.2987 685.149 62.808C685.149 62.328 685.048 61.896 684.845 61.512C684.653 61.128 684.392 60.8293 684.061 60.616C683.731 60.4027 683.363 60.296 682.957 60.296C682.541 60.296 682.168 60.408 681.837 60.632C681.507 60.8453 681.245 61.144 681.053 61.528C680.861 61.9013 680.765 62.3333 680.765 62.824ZM693.781 60.472C693.13 60.472 692.549 60.6 692.036 60.856C691.525 61.1013 691.157 61.4587 690.933 61.928V67H688.789V58.616H690.757V60.408C691.055 59.832 691.434 59.3787 691.893 59.048C692.351 58.7173 692.837 58.536 693.349 58.504C693.466 58.504 693.557 58.504 693.621 58.504C693.685 58.504 693.738 58.5093 693.781 58.52V60.472Z" fill="#1E1E1E"/>
<path d="M51.0089 54.112V26.992H66.9929V54.112H51.0089ZM65.0489 47.8L65.4569 44.8L63.9689 44.656L63.5129 46.96C62.5849 47.424 61.4409 47.656 60.0809 47.656C58.2249 47.656 56.7529 47.072 55.6649 45.904C54.5929 44.72 54.0569 43.16 54.0569 41.224C54.0569 39.336 54.5769 37.784 55.6169 36.568C56.6729 35.352 58.0569 34.744 59.7689 34.744C60.6489 34.744 61.3849 34.848 61.9769 35.056C62.5689 35.248 63.1209 35.512 63.6329 35.848L64.0649 38.128L65.5769 37.984L65.1449 34.984C64.5049 34.44 63.7449 34 62.8649 33.664C62.0009 33.328 60.9209 33.16 59.6249 33.16C58.1049 33.16 56.7929 33.536 55.6889 34.288C54.5849 35.04 53.7289 36.04 53.1209 37.288C52.5129 38.52 52.2089 39.856 52.2089 41.296C52.2089 43.568 52.9129 45.464 54.3209 46.984C55.7289 48.488 57.5689 49.24 59.8409 49.24C62.0649 49.24 63.8009 48.76 65.0489 47.8ZM66.4073 54.112V26.992H78.1673V54.112H66.4073ZM77.0873 45.928L75.6713 45.616C75.5113 46.272 75.1913 46.8 74.7113 47.2C74.2313 47.6 73.5673 47.8 72.7193 47.8C70.5593 47.8 69.4313 46.552 69.3353 44.056H76.8473C76.9433 43.624 76.9913 43.2 76.9913 42.784C76.9753 41.52 76.5833 40.424 75.8153 39.496C75.0473 38.568 73.9273 38.104 72.4553 38.104C70.9513 38.104 69.7593 38.64 68.8793 39.712C67.9993 40.784 67.5593 42.152 67.5593 43.816C67.5593 45.544 68.0233 46.88 68.9513 47.824C69.8793 48.768 71.0953 49.24 72.5993 49.24C73.9113 49.24 74.9513 48.92 75.7193 48.28C76.4873 47.624 76.9433 46.84 77.0873 45.928ZM75.2153 42.808H69.3593C69.4713 41.912 69.7593 41.136 70.2233 40.48C70.6873 39.824 71.4153 39.496 72.4073 39.496C73.4473 39.496 74.1913 39.848 74.6393 40.552C75.1033 41.256 75.2953 42.008 75.2153 42.808ZM77.587 54.112V26.992H91.843V54.112H77.587ZM85.963 49H91.363V47.632H89.515V42.16C89.515 40.736 89.163 39.704 88.459 39.064C87.755 38.424 86.883 38.104 85.843 38.104C84.115 38.104 82.867 38.808 82.099 40.216V38.32H78.499V39.688H80.419V47.632H78.547V49H83.971V47.632H82.099V42.64C82.131 41.824 82.435 41.104 83.011 40.48C83.603 39.84 84.379 39.52 85.339 39.52C86.059 39.52 86.651 39.76 87.115 40.24C87.579 40.704 87.811 41.512 87.811 42.664V47.632H85.963V49ZM91.2745 54.112V26.992H100.659V54.112H91.2745ZM100.035 46.12L98.7385 45.712C98.5785 46.576 98.3465 47.136 98.0425 47.392C97.7545 47.648 97.4105 47.776 97.0105 47.776C96.3545 47.776 95.8985 47.584 95.6425 47.2C95.4025 46.8 95.2825 46.28 95.2825 45.64V39.664H99.4585V38.32H95.2825V34.888H93.6025V38.32H91.8745V39.664H93.6025V45.856C93.6025 46.896 93.8665 47.72 94.3945 48.328C94.9385 48.936 95.7465 49.24 96.8185 49.24C98.6425 49.24 99.7145 48.2 100.035 46.12ZM100.087 54.112V26.992H110.647V54.112H100.087ZM107.143 38.128C106.535 38.128 105.991 38.336 105.511 38.752C105.047 39.152 104.711 39.648 104.503 40.24V38.32H100.999V39.688H102.919V47.632H101.047V49H107.071V47.632H104.599V42.376C104.599 41.544 104.807 40.872 105.223 40.36C105.639 39.832 106.159 39.568 106.783 39.568C107.055 39.568 107.327 39.616 107.599 39.712L108.007 41.536L109.375 41.368L108.967 38.68C108.519 38.312 107.911 38.128 107.143 38.128ZM110.071 54.112V26.992H122.863V54.112H110.071ZM116.479 38.08C114.751 38.08 113.439 38.64 112.543 39.76C111.647 40.864 111.199 42.192 111.199 43.744C111.199 45.36 111.655 46.68 112.567 47.704C113.495 48.728 114.767 49.24 116.383 49.24C118.031 49.24 119.335 48.712 120.295 47.656C121.255 46.6 121.735 45.264 121.735 43.648C121.735 42.128 121.295 40.824 120.415 39.736C119.535 38.632 118.223 38.08 116.479 38.08ZM116.431 47.8C115.295 47.8 114.431 47.4 113.839 46.6C113.247 45.8 112.951 44.816 112.951 43.648C112.951 42.464 113.247 41.48 113.839 40.696C114.447 39.912 115.311 39.52 116.431 39.52C117.551 39.52 118.415 39.904 119.023 40.672C119.647 41.424 119.959 42.408 119.959 43.624C119.959 44.824 119.655 45.824 119.047 46.624C118.439 47.408 117.567 47.8 116.431 47.8ZM122.21 54.112V26.992H128.954V54.112H122.21ZM128.259 54.112V26.992H141.939V54.112H128.259ZM137.811 49H141.339V47.632H139.491V32.488H135.219V33.856H137.811V40.048C137.091 38.752 135.899 38.104 134.235 38.104C132.491 38.104 131.251 38.72 130.515 39.952C129.779 41.184 129.411 42.512 129.411 43.936C129.411 45.6 129.827 46.904 130.659 47.848C131.507 48.776 132.619 49.24 133.995 49.24C134.971 49.24 135.763 49 136.371 48.52C136.979 48.04 137.459 47.48 137.811 46.84V49ZM137.811 42.568V44.272C137.779 45.072 137.443 45.864 136.803 46.648C136.179 47.416 135.387 47.8 134.427 47.8C133.499 47.8 132.723 47.464 132.099 46.792C131.491 46.12 131.187 45.128 131.187 43.816C131.187 42.696 131.459 41.704 132.003 40.84C132.563 39.976 133.435 39.544 134.619 39.544C135.467 39.544 136.203 39.824 136.827 40.384C137.451 40.944 137.779 41.672 137.811 42.568ZM141.36 54.112V26.992H153.12V54.112H141.36ZM152.04 45.928L150.624 45.616C150.464 46.272 150.144 46.8 149.664 47.2C149.184 47.6 148.52 47.8 147.672 47.8C145.512 47.8 144.384 46.552 144.288 44.056H151.8C151.896 43.624 151.944 43.2 151.944 42.784C151.928 41.52 151.536 40.424 150.768 39.496C150 38.568 148.88 38.104 147.408 38.104C145.904 38.104 144.712 38.64 143.832 39.712C142.952 40.784 142.512 42.152 142.512 43.816C142.512 45.544 142.976 46.88 143.904 47.824C144.832 48.768 146.048 49.24 147.552 49.24C148.864 49.24 149.904 48.92 150.672 48.28C151.44 47.624 151.896 46.84 152.04 45.928ZM150.168 42.808H144.312C144.424 41.912 144.712 41.136 145.176 40.48C145.64 39.824 146.368 39.496 147.36 39.496C148.4 39.496 149.144 39.848 149.592 40.552C150.056 41.256 150.248 42.008 150.168 42.808ZM152.468 54.112V26.992H159.212V54.112H152.468ZM158.517 54.112V26.992H173.109V54.112H158.517ZM159.765 49H171.381L171.837 44.584L170.325 44.416L169.845 47.464H163.485V41.848H170.853V40.312H163.485V34.936H169.629L170.109 37.984L171.645 37.816L171.165 33.4H159.765V34.936H161.733V47.464H159.765V49ZM172.532 54.112V26.992H183.5V54.112H172.532ZM182.348 45.904C182.348 45.056 182.124 44.432 181.676 44.032C181.228 43.616 180.676 43.328 180.02 43.168C179.364 43.008 178.708 42.88 178.052 42.784C177.396 42.672 176.844 42.504 176.396 42.28C175.948 42.04 175.724 41.64 175.724 41.08C175.724 40.536 175.94 40.136 176.372 39.88C176.804 39.624 177.356 39.496 178.028 39.496C178.812 39.496 179.54 39.672 180.212 40.024L180.476 41.752L181.868 41.584L181.604 39.088C181.156 38.816 180.604 38.584 179.948 38.392C179.308 38.2 178.62 38.104 177.884 38.104C176.908 38.104 176.004 38.336 175.172 38.8C174.34 39.264 173.924 40.064 173.924 41.2C173.924 42.032 174.148 42.648 174.596 43.048C175.044 43.432 175.604 43.704 176.276 43.864C176.948 44.024 177.612 44.16 178.268 44.272C178.94 44.384 179.5 44.56 179.948 44.8C180.396 45.04 180.62 45.456 180.62 46.048C180.62 46.656 180.324 47.112 179.732 47.416C179.156 47.704 178.492 47.848 177.74 47.848C176.892 47.848 176.1 47.672 175.364 47.32L175.436 45.904L174.092 45.76L173.756 48.184C174.22 48.488 174.82 48.744 175.556 48.952C176.308 49.144 177.06 49.24 177.812 49.24C179.092 49.24 180.164 48.944 181.028 48.352C181.908 47.76 182.348 46.944 182.348 45.904ZM182.915 54.112V26.992H192.299V54.112H182.915ZM191.675 46.12L190.379 45.712C190.219 46.576 189.987 47.136 189.683 47.392C189.395 47.648 189.051 47.776 188.651 47.776C187.995 47.776 187.539 47.584 187.283 47.2C187.043 46.8 186.923 46.28 186.923 45.64V39.664H191.099V38.32H186.923V34.888H185.243V38.32H183.515V39.664H185.243V45.856C185.243 46.896 185.507 47.72 186.035 48.328C186.579 48.936 187.387 49.24 188.459 49.24C190.283 49.24 191.355 48.2 191.675 46.12ZM191.728 54.112V26.992H205.696V54.112H191.728ZM201.472 49H205.072V47.632H203.152V38.32H199.24V39.688H201.472V44.584C201.44 45.352 201.128 46.08 200.536 46.768C199.96 47.456 199.216 47.8 198.304 47.8C197.552 47.8 196.936 47.568 196.456 47.104C195.976 46.64 195.736 45.832 195.736 44.68V38.32H192.184V39.688H194.056V45.16C194.056 46.584 194.408 47.624 195.112 48.28C195.832 48.92 196.712 49.24 197.752 49.24C198.6 49.24 199.344 49.032 199.984 48.616C200.64 48.2 201.136 47.656 201.472 46.984V49ZM205.11 54.112V26.992H218.79V54.112H205.11ZM214.662 49H218.19V47.632H216.342V32.488H212.07V33.856H214.662V40.048C213.942 38.752 212.75 38.104 211.086 38.104C209.342 38.104 208.102 38.72 207.366 39.952C206.63 41.184 206.262 42.512 206.262 43.936C206.262 45.6 206.678 46.904 207.51 47.848C208.358 48.776 209.47 49.24 210.846 49.24C211.822 49.24 212.614 49 213.222 48.52C213.83 48.04 214.31 47.48 214.662 46.84V49ZM214.662 42.568V44.272C214.63 45.072 214.294 45.864 213.654 46.648C213.03 47.416 212.238 47.8 211.278 47.8C210.35 47.8 209.574 47.464 208.95 46.792C208.342 46.12 208.038 45.128 208.038 43.816C208.038 42.696 208.31 41.704 208.854 40.84C209.414 39.976 210.286 39.544 211.47 39.544C212.318 39.544 213.054 39.824 213.678 40.384C214.302 40.944 214.63 41.672 214.662 42.568ZM218.212 54.112V26.992H225.436V54.112H218.212ZM220.972 33.376V35.56H222.796V33.376H220.972ZM219.268 49H224.692V47.632H222.82V38.32H219.22V39.688H221.14V47.632H219.268V49ZM224.868 54.112V26.992H236.94V54.112H224.868ZM227.052 39.136L226.668 41.608L228.06 41.776L228.468 39.928C229.06 39.64 229.748 39.496 230.532 39.496C231.492 39.496 232.132 39.736 232.452 40.216C232.788 40.696 232.956 41.32 232.956 42.088V43.048C232.668 43.016 232.356 42.992 232.02 42.976C231.7 42.96 231.38 42.952 231.06 42.952C229.86 42.952 228.724 43.168 227.652 43.6C226.596 44.016 226.068 44.896 226.068 46.24C226.068 47.376 226.428 48.16 227.148 48.592C227.884 49.024 228.604 49.24 229.308 49.24C230.172 49.24 230.908 49.016 231.516 48.568C232.14 48.12 232.62 47.608 232.956 47.032V47.08C232.988 48.52 233.636 49.24 234.9 49.24C235.396 49.24 235.86 49.12 236.292 48.88L236.268 47.776C236.06 47.872 235.82 47.92 235.548 47.92C234.94 47.92 234.636 47.536 234.636 46.768V41.68C234.636 39.296 233.364 38.104 230.82 38.104C230.116 38.104 229.452 38.184 228.828 38.344C228.204 38.504 227.612 38.768 227.052 39.136ZM232.956 44.992C232.892 45.872 232.532 46.568 231.876 47.08C231.236 47.592 230.548 47.848 229.812 47.848C229.348 47.848 228.9 47.72 228.468 47.464C228.036 47.208 227.82 46.736 227.82 46.048C227.82 45.216 228.14 44.68 228.78 44.44C229.436 44.184 230.164 44.056 230.964 44.056C231.316 44.056 231.66 44.072 231.996 44.104C232.332 44.136 232.652 44.16 232.956 44.176V44.992ZM236.353 54.112V26.992H250.609V54.112H236.353ZM244.729 49H250.129V47.632H248.281V42.16C248.281 40.736 247.929 39.704 247.225 39.064C246.521 38.424 245.649 38.104 244.609 38.104C242.881 38.104 241.633 38.808 240.865 40.216V38.32H237.265V39.688H239.185V47.632H237.313V49H242.737V47.632H240.865V42.64C240.897 41.824 241.201 41.104 241.777 40.48C242.369 39.84 243.145 39.52 244.105 39.52C244.825 39.52 245.417 39.76 245.881 40.24C246.345 40.704 246.577 41.512 246.577 42.664V47.632H244.729V49ZM250.04 54.112V26.992H259.424V54.112H250.04ZM258.8 46.12L257.504 45.712C257.344 46.576 257.112 47.136 256.808 47.392C256.52 47.648 256.176 47.776 255.776 47.776C255.12 47.776 254.664 47.584 254.408 47.2C254.168 46.8 254.048 46.28 254.048 45.64V39.664H258.224V38.32H254.048V34.888H252.368V38.32H250.64V39.664H252.368V45.856C252.368 46.896 252.632 47.72 253.16 48.328C253.704 48.936 254.512 49.24 255.584 49.24C257.408 49.24 258.48 48.2 258.8 46.12ZM258.853 54.112V26.992H270.613V54.112H258.853ZM269.533 45.928L268.117 45.616C267.957 46.272 267.637 46.8 267.157 47.2C266.677 47.6 266.013 47.8 265.165 47.8C263.005 47.8 261.877 46.552 261.781 44.056H269.293C269.389 43.624 269.437 43.2 269.437 42.784C269.421 41.52 269.029 40.424 268.261 39.496C267.493 38.568 266.373 38.104 264.901 38.104C263.397 38.104 262.205 38.64 261.325 39.712C260.445 40.784 260.005 42.152 260.005 43.816C260.005 45.544 260.469 46.88 261.397 47.824C262.325 48.768 263.541 49.24 265.045 49.24C266.357 49.24 267.397 48.92 268.165 48.28C268.933 47.624 269.389 46.84 269.533 45.928ZM267.661 42.808H261.805C261.917 41.912 262.205 41.136 262.669 40.48C263.133 39.824 263.861 39.496 264.853 39.496C265.893 39.496 266.637 39.848 267.085 40.552C267.549 41.256 267.741 42.008 267.661 42.808ZM270.032 54.112V26.992H281V54.112H270.032ZM279.848 45.904C279.848 45.056 279.624 44.432 279.176 44.032C278.728 43.616 278.176 43.328 277.52 43.168C276.864 43.008 276.208 42.88 275.552 42.784C274.896 42.672 274.344 42.504 273.896 42.28C273.448 42.04 273.224 41.64 273.224 41.08C273.224 40.536 273.44 40.136 273.872 39.88C274.304 39.624 274.856 39.496 275.528 39.496C276.312 39.496 277.04 39.672 277.712 40.024L277.976 41.752L279.368 41.584L279.104 39.088C278.656 38.816 278.104 38.584 277.448 38.392C276.808 38.2 276.12 38.104 275.384 38.104C274.408 38.104 273.504 38.336 272.672 38.8C271.84 39.264 271.424 40.064 271.424 41.2C271.424 42.032 271.648 42.648 272.096 43.048C272.544 43.432 273.104 43.704 273.776 43.864C274.448 44.024 275.112 44.16 275.768 44.272C276.44 44.384 277 44.56 277.448 44.8C277.896 45.04 278.12 45.456 278.12 46.048C278.12 46.656 277.824 47.112 277.232 47.416C276.656 47.704 275.992 47.848 275.24 47.848C274.392 47.848 273.6 47.672 272.864 47.32L272.936 45.904L271.592 45.76L271.256 48.184C271.72 48.488 272.32 48.744 273.056 48.952C273.808 49.144 274.56 49.24 275.312 49.24C276.592 49.24 277.664 48.944 278.528 48.352C279.408 47.76 279.848 46.944 279.848 45.904Z" fill="#1E1E1E"/>
<defs>
<linearGradient id="paint0_linear_414_28" x1="0" y1="45" x2="728" y2="45" gradientUnits="userSpaceOnUse">
<stop stop-color="#00F0FF"/>
<stop offset="0.95" stop-color="#B30CFF"/>
<stop offset="1" stop-color="#BD00FF"/>
</linearGradient>
</defs>
</svg>
